<svg xmlns="http://www.w3.org/2000/svg" version="1.1" xmlns:xlink="http://www.w3.org/1999/xlink" width="512" height="512" x="0" y="0" viewBox="0 0 504.122 504.122" style="enable-background:new 0 0 512 512" xml:space="preserve" class=""><g><path d="M504.019 272.747c-.644-26.701-3.331-51.654-7.985-74.167-2.599-12.574-22.189-8.544-19.586 4.049 4.413 21.342 6.961 45.095 7.577 70.6.975 40.426-5.313 75.521-18.688 104.309-21.378 46.011-63.184 76.325-112.598 85.367-.256.046-23.758 4.17-56.457-2.544 13.46-8.709 30.093-21.931 45.155-40.908 46.866-59.047 47.344-137.371 27.56-207.009-12.47-43.895-30.199-87.341-57.613-124.144 42.547-21.599 72.761-13.359 74.049-12.99.289.091.4.118.696.182 1.415.326 34.967 8.496 62.639 53.538 6.776 11.027 23.749.449 17.041-10.47-31.146-50.695-70.433-61.417-74.998-62.513-4.419-1.224-42.265-10.444-92.287 16.409-24.68-27.907-58.627-53.49-96.761-57.436-28.392-2.937-56.782 7.868-80.166 23.312-21.555 14.236-41.118 34.124-58.146 59.11-20.97 30.771-38.162 69.463-51.099 115-19.784 69.639-19.306 147.96 27.56 207.009 30.259 38.124 66.867 53.035 71.324 54.749 48.796 21.996 109.924 18.97 158.968-.036 27.233 8.733 57.355 13.353 85.775 8.476 55.154-6.38 104.071-46.764 127.189-96.022 14.893-31.729 21.908-70.042 20.851-113.871zM119.332 455.914a10.264 10.264 0 0 0-.767-.321c-.352-.131-35.524-13.549-63.571-49.313-42.26-53.886-41.31-125.338-23.404-188.369 27.505-96.815 69.408-141.54 99.717-162.011 25.197-17.019 48.623-21.41 58.198-21.41.27 0 .53.003.778.01.261.011.521.011.782 0 1.051-.035 106.026-1.976 158.692 183.41 17.908 63.033 18.857 134.483-23.402 188.369-28.047 35.764-63.219 49.182-63.551 49.305-44.217 16.274-99.514 20.687-143.472.33z" fill="#fff" opacity="1" data-original="#fff" class=""></path><path d="M300.01 316.311c0-60.288-49.048-109.336-109.336-109.336-16.892 0-33.092 3.751-48.151 11.148-11.525 5.661-2.724 23.618 8.818 17.951 12.291-6.038 25.524-9.1 39.333-9.1 49.26 0 89.336 40.076 89.336 89.336s-40.076 89.336-89.336 89.336-89.336-40.076-89.336-89.336c0-8.993 1.33-17.864 3.952-26.366 3.784-12.27-15.322-18.18-19.112-5.894a109.367 109.367 0 0 0-4.839 32.26c0 60.288 49.048 109.336 109.336 109.336S300.01 376.599 300.01 316.311z" fill="#fff" opacity="1" data-original="#fff" class=""></path><path d="M105.997 256.575c1.618 3.948 5.72 6.455 9.964 6.151 4.342-.31 8.06-3.544 9.013-7.783 1.961-8.718-8.172-15.504-15.5-10.358-3.777 2.653-5.254 7.724-3.477 11.99zM465.807 155.905c-4.894 7.334 1.873 17.267 10.506 15.296 4.151-.948 7.346-4.518 7.758-8.771.402-4.155-1.902-8.229-5.678-10.016-4.4-2.082-9.909-.602-12.586 3.491z" fill="#fff" opacity="1" data-original="#fff" class=""></path></g></svg>