<svg xmlns="http://www.w3.org/2000/svg" version="1.1" xmlns:xlink="http://www.w3.org/1999/xlink" width="512" height="512" x="0" y="0" viewBox="0 0 512 512" style="enable-background:new 0 0 512 512" xml:space="preserve" class=""><g><path d="M482.327 40.311H241.82c-11.95 0-21.672 9.722-21.672 21.672v388.034c0 11.95 9.722 21.673 21.672 21.673h240.507c11.95 0 21.673-9.723 21.673-21.673V61.983c0-11.95-9.723-21.672-21.673-21.672zM488 450.017c0 3.075-2.598 5.673-5.673 5.673H241.82a5.679 5.679 0 0 1-5.672-5.673V61.983a5.678 5.678 0 0 1 5.672-5.672h240.507A5.679 5.679 0 0 1 488 61.983zM180.854 196.151c0-11.23 3.862-20.547 11.809-28.484 12.688-12.676 19.966-31.038 19.966-50.378 0-36.791-26.052-66.722-58.074-66.722-2.247 0-4.413.156-6.497.367-11.12-8.692-24.742-13.423-39.046-13.423-14.196 0-27.719 4.663-38.793 13.229a50.916 50.916 0 0 0-4.146-.173C34.051 50.568 8 80.499 8 117.29c0 19.34 7.277 37.703 19.965 50.378 7.946 7.938 11.809 17.255 11.809 28.484v37.99c0 .102.011.201.015.302a86.663 86.663 0 0 0-16.02 50.145c0 22.444 6.771 34.016 13.939 46.266 7.756 13.255 15.774 26.964 17.707 59.312v12.504c0 8.614 5.275 16.017 12.764 19.156v6.371c0 8.736 5.432 16.215 13.09 19.275v6.253c0 11.449 9.314 20.764 20.764 20.764h16.564c11.449 0 20.764-9.314 20.764-20.764v-6.253c7.657-3.06 13.089-10.539 13.089-19.275v-6.371c7.488-3.139 12.764-10.542 12.764-19.156V390.18c1.93-32.358 9.95-46.069 17.708-59.326 7.168-12.251 13.938-23.821 13.938-46.266a86.653 86.653 0 0 0-16.02-50.145c.004-.101.015-.2.015-.302v-37.99zM39.273 156.348C29.566 146.651 24 132.415 24 117.29c0-23.085 12.862-42.603 30.398-48.72-5.497 9.214-8.595 19.713-8.901 30.688a8 8 0 0 0 7.774 8.22c4.444.105 8.097-3.359 8.22-7.774.721-25.902 21.594-46.191 47.521-46.191 25.926 0 46.799 20.29 47.52 46.191a8 8 0 0 0 15.994-.446c-.316-11.355-3.608-22.209-9.468-31.648 19.138 4.753 33.572 25.222 33.572 49.68 0 15.125-5.567 29.361-15.273 39.058-10.949 10.936-16.501 24.328-16.501 39.804v1.351h-10.462v-50.598a8 8 0 0 0-16 0v50.598h-20.079v-50.598a8 8 0 0 0-16 0v50.598h-20.08v-50.598a8 8 0 0 0-16 0v50.598H55.773v-1.351c0-15.475-5.551-28.866-16.5-39.804zm16.5 69.793v-12.639h109.081v12.639zm32.978 69.277H78.498c-5.653 0-10.252-4.599-10.252-10.252s4.599-10.252 10.252-10.252 10.253 4.599 10.253 10.252zm27.127 86.485h-11.127v-70.485h11.127zm33.335 16v4.766c0 2.582-2.181 4.763-4.763 4.763H76.178c-2.582 0-4.763-2.181-4.763-4.763v-4.766zm-17.526 35.056H88.943c-2.583 0-4.765-2.181-4.765-4.763v-4.765h52.271v4.765c0 2.582-2.18 4.763-4.762 4.763zm-13.09 25.529h-16.564c-2.582 0-4.764-2.182-4.764-4.764v-4.766h26.092v4.766c-.001 2.583-2.182 4.764-4.764 4.764zm50.514-135.716c-7.34 12.543-16.345 27.936-19.308 59.131h-17.926v-70.485h10.252c14.476 0 26.253-11.776 26.253-26.252s-11.777-26.252-26.253-26.252-26.252 11.777-26.252 26.252v10.252H104.75v-10.252c0-14.476-11.777-26.252-26.253-26.252s-26.252 11.777-26.252 26.252 11.776 26.252 26.252 26.252H88.75v70.485H70.825c-2.963-31.194-11.969-46.587-19.308-59.13-6.564-11.218-11.749-20.079-11.749-38.186a70.623 70.623 0 0 1 14.208-42.447h112.676a70.62 70.62 0 0 1 14.208 42.447c-.001 18.108-5.185 26.969-11.749 38.185zm-37.233-27.354v-10.252c0-5.653 4.599-10.252 10.252-10.252s10.253 4.599 10.253 10.252-4.6 10.252-10.253 10.252zm331.901-186.853a8 8 0 0 0-8 8v83.853c0 15.631-12.717 28.348-28.348 28.348h-12.036c-15.631 0-28.348-12.717-28.348-28.348v-83.853a8 8 0 0 0-16 0v83.853c0 19.152 12.205 35.505 29.244 41.696l-8.685 130.449c-.54 8.117 2.2 15.834 7.716 21.729 5.516 5.896 13.033 9.142 21.168 9.142h1.847c8.135 0 15.652-3.246 21.168-9.142 5.516-5.895 8.256-13.611 7.716-21.729l-8.686-130.449c17.04-6.191 29.245-22.544 29.245-41.697v-83.853a8.001 8.001 0 0 0-8.001-7.999zM431.821 383.36c-2.457 2.627-5.825 4.073-9.484 4.073h-1.847c-3.659 0-7.027-1.446-9.484-4.073-2.458-2.626-3.678-6.083-3.435-9.734l8.579-128.86h10.525l8.58 128.86c.244 3.651-.976 7.108-3.434 9.734zm-32.816-182.942v-83.853a8 8 0 0 1 16 0v83.853a8 8 0 0 1-16 0zm28.817 0v-83.853a8 8 0 0 1 16 0v83.853a8 8 0 0 1-16 0zm-120.945-96.377c-30.057 0-54.509 31.425-54.509 70.051 0 28.63 13.109 53.708 33.164 64.53l-9.17 137.74c-.554 8.308 2.251 16.206 7.896 22.239 5.646 6.034 13.34 9.357 21.666 9.357h1.906c8.326 0 16.021-3.322 21.665-9.356 5.646-6.033 8.45-13.932 7.897-22.239l-9.172-137.74c20.056-10.822 33.166-35.9 33.166-64.531.001-38.626-24.452-70.051-54.509-70.051zm10.106 122.183a8 8 0 0 0-5.092 7.991l9.536 143.21c.256 3.842-1.028 7.48-3.615 10.245-2.587 2.766-6.132 4.288-9.982 4.288h-1.906c-3.85 0-7.395-1.522-9.982-4.288-2.587-2.765-3.87-6.403-3.614-10.245l9.534-143.211a8 8 0 0 0-5.091-7.99c-16.723-6.482-28.402-27.919-28.402-52.132 0-29.804 17.275-54.051 38.509-54.051s38.51 24.247 38.51 54.051c-.001 24.213-11.681 45.65-28.405 52.132zm-2.173-80.651a8 8 0 0 1-6.897 8.967c-3.501.457-10.031 7.574-10.031 19.551a8 8 0 0 1-16 0c0-18.107 10.525-33.664 23.961-35.417a7.999 7.999 0 0 1 8.967 6.899z" fill="#fff" opacity="1" data-original="#fff"></path></g></svg>