<svg xmlns="http://www.w3.org/2000/svg" version="1.1" xmlns:xlink="http://www.w3.org/1999/xlink" width="512" height="512" x="0" y="0" viewBox="0 0 512 512" style="enable-background:new 0 0 512 512" xml:space="preserve" class=""><g><path d="M117.133 452a7.499 7.499 0 0 0-7.5 7.5v45c0 4.143 3.357 7.5 7.5 7.5s7.5-3.357 7.5-7.5v-45a7.5 7.5 0 0 0-7.5-7.5zm98.658 25a7.5 7.5 0 1 0 0 15 7.5 7.5 0 0 0 0-15zm45 0a7.5 7.5 0 1 0 0 15 7.5 7.5 0 0 0 0-15zm-45-45a7.5 7.5 0 1 0 0 15 7.5 7.5 0 0 0 0-15zm45 0a7.5 7.5 0 1 0 0 15 7.5 7.5 0 0 0 0-15zM454.87 247.5h-90c-12.406 0-22.5 10.094-22.5 22.5v72c0 12.406 10.094 22.5 22.5 22.5h9c4.136 0 7.5 3.364 7.5 7.5v12.959a66.067 66.067 0 0 0-15.339-7.508l-84.4-28.399c-5.727-1.931-8.555-7.347-8.131-13.124 28.896-16.937 48.885-47.495 51.083-82.798 14.037-.383 25.341-11.913 25.341-26.041 0-14.058-11.191-25.544-25.131-26.036.013-1.469.084-12.72-.09-13.92a1116.258 1116.258 0 0 1-3.864-29.711c-1.273-10.993-2.59-22.356-3.909-30.053 16.592-12.948 25.142-33.189 22.884-54.221a59.313 59.313 0 0 0-6.438-21.229 7.5 7.5 0 0 0-13.295 6.945 44.377 44.377 0 0 1 4.818 15.884c1.709 15.922-4.801 31.234-17.412 40.961-4.247 3.274-6.313 8.604-5.392 13.911 1.266 7.28 2.576 18.591 3.844 29.528.807 6.967 1.632 14.083 2.463 20.319a691.264 691.264 0 0 0-83.693-5.517 693.077 693.077 0 0 0-90.563 5.541l6.268-48.229c.883-5.477-1.469-11.025-6.025-14.182-12.932-8.958-20.228-23.688-19.517-39.404 1.034-22.878 19.767-41.835 42.645-43.157a45.404 45.404 0 0 1 13.445 1.227c5.338 1.308 10.878-.494 14.45-4.707C194.056 20.847 206.662 15 219.998 15c13.335 0 25.941 5.847 34.586 16.04 3.571 4.212 9.106 6.016 14.451 4.707a45.523 45.523 0 0 1 16.417-.959 44.719 44.719 0 0 1 13.196 3.73 7.498 7.498 0 0 0 9.94-3.698 7.498 7.498 0 0 0-3.698-9.94 59.615 59.615 0 0 0-17.619-4.98 60.422 60.422 0 0 0-21.456 1.193C254.321 7.684 237.641 0 219.998 0c-17.644 0-34.323 7.683-45.817 21.093a60.214 60.214 0 0 0-17.529-1.547c-14.844.857-28.824 7.205-39.368 17.874C106.737 48.092 100.559 62.148 99.888 77c-.94 20.784 8.649 40.274 25.667 52.209-.106.596-7.569 58.157-7.592 58.721-.013.33-.026 12.781-.015 13.123-13.94.492-25.131 11.979-25.131 26.036 0 14.127 11.302 25.656 25.337 26.041a102.607 102.607 0 0 0 7.055 31.64c1.546 3.896 5.968 5.699 9.737 4.204a7.498 7.498 0 0 0 4.204-9.737c-4.115-10.37-6.202-21.339-6.202-32.602v-51.833c30.327-4.013 61.129-5.994 91.689-5.851 28.373.137 56.983 2.119 85.156 5.847v51.837c0 48.756-39.666 88.422-88.423 88.422-24.644 0-48.357-10.403-65.062-28.542a7.5 7.5 0 0 0-11.034 10.162 103.34 103.34 0 0 0 26.715 20.793v.27c0 5.13-3.268 9.676-8.132 11.312l-84.401 28.4a65.778 65.778 0 0 0-44.827 62.388v64.66c0 4.143 3.357 7.5 7.5 7.5s7.5-3.357 7.5-7.5v-64.66a50.791 50.791 0 0 1 34.612-48.172l70.763-23.811 35.747 27.697c-13.223 7.805-21.572 22.194-21.572 37.724V504.5c0 4.143 3.357 7.5 7.5 7.5s7.5-3.357 7.5-7.5v-71.223c0-11.119 6.506-21.353 16.574-26.069l86.39-40.475 74.097 24.933a51.007 51.007 0 0 1 20.128 12.656v12.392h-.062c-10.521 0-19.081 8.561-19.081 19.082v57.122c0 10.521 8.56 19.082 19.081 19.082h41.258c19.27 0 34.946-15.678 34.946-34.947v-25.392c0-13.583-7.795-25.374-19.143-31.154V372c0-4.136 3.364-7.5 7.5-7.5h9c12.406 0 22.5-10.094 22.5-22.5v-72c.003-12.406-10.091-22.5-22.497-22.5zm-130.077-31.432c5.665.473 10.131 5.235 10.131 11.021s-4.466 10.548-10.131 11.021zm-206.846 22.041c-5.665-.473-10.131-5.235-10.131-11.021s4.466-10.548 10.131-11.021zm87.888 150.154-33.983-26.33a26.894 26.894 0 0 0 14.425-18.048c11.161 4.033 23.031 6.172 35.094 6.172 13.281 0 25.982-2.523 37.657-7.104a26.888 26.888 0 0 0 9.66 15.862zm236.678 63.398v25.392c0 10.999-8.948 19.947-19.946 19.947h-41.258a4.086 4.086 0 0 1-4.081-4.082v-57.122a4.086 4.086 0 0 1 4.081-4.082h41.258c10.997 0 19.946 8.948 19.946 19.947zM462.37 342c0 4.136-3.364 7.5-7.5 7.5h-9c-12.406 0-22.5 10.094-22.5 22.5v44.734c-.724-.032-26.208-.017-27-.021V372c0-12.406-10.094-22.5-22.5-22.5h-9c-4.136 0-7.5-3.364-7.5-7.5v-72c0-4.136 3.364-7.5 7.5-7.5h90c4.136 0 7.5 3.364 7.5 7.5zM212.498 100.624v35.958c0 4.143 3.357 7.5 7.5 7.5s7.5-3.357 7.5-7.5v-35.958c0-4.143-3.357-7.5-7.5-7.5s-7.5 3.357-7.5 7.5zm45.444-2.88-14.956 35.958a7.5 7.5 0 0 0 4.045 9.805c3.738 1.555 8.199-.172 9.805-4.045l14.956-35.958a7.5 7.5 0 1 0-13.85-5.76zm14.679 144.799v-15.479c0-4.143-3.357-7.5-7.5-7.5s-7.5 3.357-7.5 7.5v15.479c0 4.143 3.357 7.5 7.5 7.5s7.5-3.357 7.5-7.5zM379.87 277.5a7.499 7.499 0 0 0-7.5 7.5v42c0 4.143 3.357 7.5 7.5 7.5s7.5-3.357 7.5-7.5v-42c0-4.143-3.357-7.5-7.5-7.5zM172.248 93.699a7.5 7.5 0 0 0-4.045 9.805l14.956 35.958c1.606 3.872 6.058 5.603 9.805 4.045a7.5 7.5 0 0 0 4.045-9.805l-14.956-35.958a7.5 7.5 0 0 0-9.805-4.045zM409.87 277.5a7.499 7.499 0 0 0-7.5 7.5v42c0 4.143 3.357 7.5 7.5 7.5s7.5-3.357 7.5-7.5v-42c0-4.143-3.357-7.5-7.5-7.5zm30 0a7.499 7.499 0 0 0-7.5 7.5v42c0 4.143 3.357 7.5 7.5 7.5s7.5-3.357 7.5-7.5v-42c0-4.143-3.357-7.5-7.5-7.5zm-217.393 16.345c7.604-.272 13.312-3.249 16.761-5.698a7.498 7.498 0 0 0 1.773-10.457 7.499 7.499 0 0 0-10.457-1.773c-1.457 1.034-4.514 2.792-8.615 2.938-4.661.166-8.105-1.772-9.759-2.943a7.499 7.499 0 0 0-10.455 1.785 7.499 7.499 0 0 0 1.785 10.455c2.86 2.025 10.757 5.987 18.967 5.693zm-37.358-51.302v-15.479c0-4.143-3.357-7.5-7.5-7.5s-7.5 3.357-7.5 7.5v15.479c0 4.143 3.357 7.5 7.5 7.5s7.5-3.357 7.5-7.5z" fill="#f05624" opacity="1" data-original="#f05624" class=""></path></g></svg>