<svg xmlns="http://www.w3.org/2000/svg" version="1.1" xmlns:xlink="http://www.w3.org/1999/xlink" width="512" height="512" x="0" y="0" viewBox="0 0 512 512" style="enable-background:new 0 0 512 512" xml:space="preserve" class=""><g><path d="M503 245.256v-30.413c0-37.399-30.427-67.826-67.826-67.826H329.13a67.414 67.414 0 0 0-28.718 6.399l.855-13.298h15.209a7 7 0 0 0 7-7v-22.899c0-16.486-13.413-29.899-29.899-29.899h-72.118V16a7 7 0 0 0-7-7h-28.177a7 7 0 0 0-7 7v64.32h-72.119c-16.486 0-29.898 13.413-29.898 29.899v22.899a7 7 0 0 0 7 7h15.209l8.023 124.749a97.007 97.007 0 0 0-3.707-.079c-52.267 0-94.79 42.523-94.79 94.79 0 24.952 9.696 47.678 25.511 64.623l-23.717 41.08a7 7 0 0 0 7.447 10.361l29.523-5.96 9.602 28.549a6.998 6.998 0 0 0 6.637 4.768 6.999 6.999 0 0 0 6.06-3.5l26.228-45.427a95.467 95.467 0 0 0 15 0l26.228 45.427a6.999 6.999 0 0 0 12.697-1.268l9.602-28.549 29.523 5.96a7 7 0 0 0 7.447-10.361l-23.717-41.08a95.446 95.446 0 0 0 10.049-12.797h79.489c3.937 13.465 16.388 23.332 31.107 23.332h176.873c17.872 0 32.412-14.54 32.412-32.412V366.91a7 7 0 0 0-7-7h-1.262c5.162-6.415 8.262-14.557 8.262-23.413 0-12.517-6.179-23.618-15.646-30.413 9.467-6.796 15.646-17.896 15.646-30.414 0-8.856-3.099-16.998-8.262-23.413H496a7.001 7.001 0 0 0 7-7.001zm-67.826-84.239c29.68 0 53.826 24.146 53.826 53.826v23.413H275.304v-23.413c0-29.68 24.146-53.826 53.826-53.826zm-75.913 91.239-21.822 21.822-21.822-21.822zM193.283 23h14.177v57.32h-14.177zM91.265 110.219c0-8.767 7.132-15.899 15.898-15.899h186.414c8.767 0 15.899 7.132 15.899 15.899v15.899H91.265zM65.692 479.07l-6.626-19.702a7 7 0 0 0-8.02-4.63l-20.374 4.112 14.388-24.921c10.56 8.359 22.935 14.516 36.428 17.783zM23 359.578c0-44.548 36.243-80.79 80.791-80.79s80.791 36.242 80.791 80.79-36.243 80.791-80.791 80.791S23 404.126 23 359.578zm133.535 95.16a6.992 6.992 0 0 0-8.02 4.63l-6.626 19.702-15.795-27.358c13.493-3.266 25.868-9.424 36.428-17.783l14.388 24.921zM121.63 266.479l-8.127-126.361h173.736l-1.454 22.603c-14.948 12.452-24.481 31.193-24.481 52.123v30.413a7 7 0 0 0 7 7h1.262c-5.163 6.415-8.262 14.557-8.262 23.414 0 12.517 6.178 23.618 15.646 30.413-9.468 6.795-15.646 17.896-15.646 30.412 0 8.856 3.1 16.999 8.262 23.414h-1.262a7 7 0 0 0-7 7v30.494h-70.606c5.066-11.594 7.883-24.386 7.883-37.825 0-46.171-33.183-84.731-76.951-93.1zM489 402.323c0 10.152-8.259 18.412-18.412 18.412H293.715c-10.152 0-18.411-8.26-18.411-18.412v-28.414H489zm0-65.827c0 12.91-10.503 23.413-23.413 23.413h-166.87c-12.91 0-23.413-10.504-23.413-23.414 0-12.909 10.503-23.412 23.413-23.412h41.814l36.671 36.67c1.367 1.367 3.158 2.051 4.95 2.051s3.583-.684 4.95-2.051l36.67-36.67h41.815c12.91 0 23.413 10.503 23.413 23.413zm-128.67-23.413h43.644l-21.822 21.821zM489 275.669c0 12.911-10.503 23.414-23.413 23.414h-166.87c-12.91 0-23.413-10.503-23.413-23.413 0-11.985 9.053-21.889 20.679-23.249l36.506 36.505c1.367 1.367 3.158 2.051 4.95 2.051s3.583-.684 4.95-2.051l36.671-36.67h86.528c12.909 0 23.412 10.503 23.412 23.413zm-385.21 14.832c-38.089 0-69.077 30.988-69.077 69.077s30.988 69.077 69.077 69.077 69.078-30.988 69.078-69.077-30.989-69.077-69.078-69.077zm0 124.154c-30.37 0-55.077-24.707-55.077-55.077s24.707-55.077 55.077-55.077 55.078 24.707 55.078 55.077-24.708 55.077-55.078 55.077zm33.168-80.585a7 7 0 0 1 0 9.9l-43.623 43.623a7.004 7.004 0 0 1-4.95 2.05l-.118-.001a6.997 6.997 0 0 1-4.996-2.22L63.75 366.534a7 7 0 0 1 .335-9.894 6.999 6.999 0 0 1 9.894.335l14.577 15.598 38.502-38.504a7.005 7.005 0 0 1 9.9.001zm276.808-149.328a8.131 8.131 0 1 1 16.263 0 8.132 8.132 0 0 1-16.263 0zm-19.873 29.79a8.132 8.132 0 1 1 16.264 0 8.132 8.132 0 0 1-16.264 0zm39.745 0a8.131 8.131 0 1 1 16.263 0c0 4.491-3.641 8.131-8.132 8.131s-8.131-3.64-8.131-8.131zm-119.235 0a8.132 8.132 0 1 1 16.264 0 8.132 8.132 0 0 1-16.264 0zm19.873-29.79a8.132 8.132 0 1 1 16.264 0 8.132 8.132 0 0 1-16.264 0zm19.872 29.79a8.132 8.132 0 1 1 16.263 0 8.132 8.132 0 0 1-16.263 0zm19.873-29.79a8.132 8.132 0 1 1 16.264 0 8.132 8.132 0 0 1-16.264 0z" fill="#f05624" opacity="1" data-original="#f05624" class=""></path></g></svg>