<svg xmlns="http://www.w3.org/2000/svg" version="1.1" xmlns:xlink="http://www.w3.org/1999/xlink" width="512" height="512" x="0" y="0" viewBox="0 0 512 512" style="enable-background:new 0 0 512 512" xml:space="preserve" class=""><g><g fill="#d4d4d4"><path d="M452.82 228.96c-3.79 61.91-39.7 120.97-92.92 152.82-14.99 8.97-31.28 15.95-44.95 26.82s-24.79 26.94-24 44.39c43.31-36.33 99.27-58.15 134.21-102.59 26.68-33.94 38.16-79.41 27.66-121.43zM339.47 222.9c5.64 7.06 11.18 14.35 14.63 22.69s4.64 17.97 1.44 26.41c-3.32 8.76-10.86 15.2-18.63 20.44s-16.16 9.79-22.64 16.55c-1.03 1.07-2.05 2.7-1.2 3.91.86 1.23 2.75.81 4.14.25 11.56-4.58 23.12-9.17 34.67-13.75 3.37-1.34 6.89-2.78 9.22-5.57 3.46-4.14 3.4-10.08 3.17-15.47-.44-10.1-.89-20.32-3.78-30.01s-8.49-18.95-21.03-25.47zM309.79 221.28c-.46 5.65-3.46 10.88-7.47 14.9s-8.97 6.93-14.05 9.45a125.352 125.352 0 0 1-40.51 12.14c-6.74.82-13.57 1.1-20.21 2.5s-13.24 4.05-18.01 8.89c9.79 4.38 21.08 2.64 31.71 1.22 23.02-3.07 46.29-4.22 69.5-3.44-1.58-15.13-3.17-30.26-.96-45.67zM306.16 160.78c-7.77 12.85-21.63 21.09-36.09 25.18s-29.66 4.49-44.67 4.87c16.55 11.5 38.48 14.87 57.72 8.87s35.37-21.23 42.46-40.1" fill="#d4d4d4" opacity="1" data-original="#d4d4d4"></path></g><g fill="none" stroke="#fff" stroke-linecap="round" stroke-linejoin="round" stroke-width="10"><path d="M93 298.95c-6.88-16.66-7.65-35.91-12.67-53.45-5.98-20.9-23.63-18.84-23.63-18.84s-17.05 101.21 54.6 149.6c73.43 49.59 97.14 61.76 114.21 84.5 3.29-30.07 6.53-60.86-.55-90.27s-26.66-57.67-55.57-66.59c-20.98-6.47-38.4-23.53-46.05-44.03-5.62 4.4-22.05 34.29 15.9 67.89 7.67 6.79 30.79 15.91 34.11 40.64M419 298.95c6.88-16.66 7.65-35.91 12.67-53.45 5.98-20.9 23.63-18.84 23.63-18.84s17.05 101.21-54.6 149.6c-73.43 49.59-97.14 61.76-114.21 84.5-3.29-30.07-6.53-60.86.55-90.27s26.66-57.67 55.57-66.59c20.98-6.47 38.4-23.53 46.05-44.03 5.62 4.4 22.05 34.29-15.9 67.89-7.67 6.79-30.79 15.91-34.11 40.64M247.02 51.24h29.21c16.14 0 29.25 13.1 29.25 29.25v39.12h-87.7V80.49c0-16.14 13.1-29.25 29.25-29.25z" fill="" opacity="1"></path><path d="M217.78 95.09s-53.5-.41-57.17 15.5 25.87 55.46 101.03 54.24" fill="" opacity="1"></path><path d="M305.48 95.09s53.5-.41 57.17 15.5-25.87 55.46-101.03 54.24" fill="" opacity="1"></path><path d="M321.34 155.13c-5.61 27.62-30.65 48.44-60.71 48.44-29.9 0-54.85-20.62-60.62-48.03M155.43 297.77v-27.55c0-31.58 25.6-57.19 57.19-57.19 11.34 13.55 28.62 22.22 48.01 22.22s36.68-8.65 48.01-22.22h1.69c31.58 0 57.19 25.6 57.19 57.19v19.76M212.62 213.03v123.21M310.33 213.03v110.01M212.62 267.32h92.86" fill="" opacity="1"></path></g><g fill="none" stroke="#fff" stroke-linecap="round" stroke-linejoin="round" stroke-width="10"><path d="m348.26 62.8 3.51-23.68M364.04 71.13l12.72-20.17M379.39 77.27c8.48-5.55 16.96-11.11 25.43-16.66M44.43 318.53c4.84 28.24 21.92 54.16 45.97 69.74M109.92 399.94c7.45 4.74 14.89 9.48 22.34 14.21" fill="" opacity="1"></path></g></g></svg>