   <svg id="popup" class="popup"  width="255" height="181" viewBox="0 0 255 181" fill="none"
                    xmlns="http://www.w3.org/2000/svg">
                    <path d="M0 0H255V164.067H144L128 181L110.5 164.067H0V0Z" fill="white" />
                    <rect x="9" y="111" width="237" height="36" rx="4" fill="#F9B419" />
                    <path
                        d="M72.788 121.624C75.106 121.624 76.398 122.555 76.398 125.975V130.725C76.398 134.145 75.106 135.057 72.788 135.057H72.123C69.805 135.057 68.513 134.145 68.513 130.725V125.975C68.513 122.555 69.805 121.624 72.123 121.624H72.788ZM73.567 129.946V126.735C73.567 124.683 73.434 124.265 72.465 124.265C71.496 124.265 71.344 124.683 71.344 126.735V129.946C71.344 132.017 71.496 132.435 72.465 132.435C73.434 132.435 73.567 132.017 73.567 129.946ZM82.7578 123.828C84.3158 123.828 84.7718 124.322 84.7718 126.108V131.713C84.7718 133.746 84.0688 135 81.6938 135H80.3068V138.705H77.5518V123.904H80.3068V124.93C80.9338 124.341 81.8458 123.828 82.4918 123.828H82.7578ZM82.0928 131.428V127.115C82.0928 126.317 81.8838 126.146 81.1428 126.146H80.3068V132.492H81.1428C81.8458 132.492 82.0928 132.15 82.0928 131.428ZM93.3481 127.248V127.761C93.3481 129.794 92.4931 130.098 90.2511 130.858L88.5791 131.428V131.447C88.5791 132.321 88.7501 132.606 89.8141 132.606H92.5501V135H88.9211C86.5461 135 85.8431 134.468 85.8431 131.789L85.8241 129.965V127.875C85.8241 124.512 86.9831 123.828 89.2631 123.828H89.9281C92.0561 123.828 93.1961 124.417 93.3481 127.248ZM89.7191 128.54C90.4031 128.312 90.6691 128.122 90.6691 127.343C90.6691 126.564 90.2511 126.393 89.5861 126.393C88.6361 126.393 88.4081 126.716 88.4081 128.749V128.977L89.7191 128.54ZM99.4385 123.828C101.015 123.828 101.471 124.322 101.471 126.108V135H98.7925V127.115C98.7925 126.317 98.5645 126.146 97.8425 126.146H96.9875V135H94.2325V123.904H96.9875V124.949C97.6145 124.341 98.5265 123.828 99.1725 123.828H99.4385ZM111.275 127.248H115.474V130.896C115.436 134.164 114.144 135.057 111.864 135.057H111.199C108.881 135.057 107.589 134.145 107.589 130.725V125.975C107.589 122.555 108.881 121.624 111.199 121.624H111.864C114.144 121.624 115.436 122.536 115.474 125.804H112.624C112.567 124.55 112.339 124.265 111.541 124.265C110.572 124.265 110.42 124.683 110.42 126.735V129.946C110.42 132.017 110.572 132.435 111.541 132.435C112.339 132.435 112.567 132.15 112.624 130.896V129.718H111.275V127.248ZM120.543 123.828C122.823 123.828 123.963 124.512 123.963 127.875V131.029C123.963 134.392 122.823 135.057 120.543 135.057H119.878C117.598 135.057 116.439 134.392 116.439 131.029V127.875C116.439 124.512 117.598 123.828 119.878 123.828H120.543ZM121.303 130.136V128.749C121.303 126.716 121.17 126.431 120.201 126.431C119.251 126.431 119.118 126.716 119.118 128.749V130.136C119.118 132.169 119.251 132.473 120.201 132.473C121.17 132.473 121.303 132.169 121.303 130.136ZM129.041 123.828C131.321 123.828 132.461 124.512 132.461 127.875V131.029C132.461 134.392 131.321 135.057 129.041 135.057H128.376C126.096 135.057 124.937 134.392 124.937 131.029V127.875C124.937 124.512 126.096 123.828 128.376 123.828H129.041ZM129.801 130.136V128.749C129.801 126.716 129.668 126.431 128.699 126.431C127.749 126.431 127.616 126.716 127.616 128.749V130.136C127.616 132.169 127.749 132.473 128.699 132.473C129.668 132.473 129.801 132.169 129.801 130.136ZM136.589 123.904H140.712V136.254C140.712 138.952 139.99 139.465 137.615 139.465H133.549V137.09H136.722C137.786 137.09 137.976 136.805 137.976 135.931V133.955C137.33 134.544 136.418 135.057 135.791 135.057H135.506C133.948 135.057 133.492 134.563 133.492 132.796V127.172C133.492 125.158 134.214 123.904 136.589 123.904ZM137.976 132.739V126.393H137.121C136.437 126.393 136.171 126.735 136.171 127.476V131.77C136.171 132.568 136.38 132.739 137.121 132.739H137.976ZM144.747 135H141.992V120.18H144.747V135ZM153.391 127.248V127.761C153.391 129.794 152.536 130.098 150.294 130.858L148.622 131.428V131.447C148.622 132.321 148.793 132.606 149.857 132.606H152.593V135H148.964C146.589 135 145.886 134.468 145.886 131.789L145.867 129.965V127.875C145.867 124.512 147.026 123.828 149.306 123.828H149.971C152.099 123.828 153.239 124.417 153.391 127.248ZM149.762 128.54C150.446 128.312 150.712 128.122 150.712 127.343C150.712 126.564 150.294 126.393 149.629 126.393C148.679 126.393 148.451 126.716 148.451 128.749V128.977L149.762 128.54ZM164.549 129.129L166.924 121.7H169.793V135H166.924V129.281L165.556 134.544H163.542L162.174 129.281V135H159.305V121.7H162.174L164.549 129.129ZM177.679 135H174.943V134.069C174.392 134.601 173.67 135.057 173.1 135.057H172.815C171.257 135.057 170.801 134.563 170.801 132.796V131.181C170.801 129.167 171.656 128.863 173.898 128.103L174.943 127.742V127.438C174.943 126.564 174.753 126.279 173.689 126.279H171.314V123.904H174.582C176.957 123.904 177.679 124.417 177.679 127.115V135ZM174.43 132.682H174.943V130.25L174.43 130.402C173.746 130.649 173.48 130.915 173.48 131.713C173.499 132.511 173.689 132.682 174.43 132.682ZM184.104 123.828C185.662 123.828 186.118 124.322 186.118 126.108V131.713C186.118 133.746 185.415 135 183.04 135H181.653V138.705H178.898V123.904H181.653V124.93C182.28 124.341 183.192 123.828 183.838 123.828H184.104ZM183.439 131.428V127.115C183.439 126.317 183.23 126.146 182.489 126.146H181.653V132.492H182.489C183.192 132.492 183.439 132.15 183.439 131.428Z"
                        fill="white" />
                    <rect width="255" height="36" fill="#B42129" />
                    <path
                        d="M12.356 9.37286C12.1497 9.37286 11.9831 9.53992 11.9831 9.74573V13.8475C11.9831 14.3329 11.6703 14.7428 11.2373 14.8975V9.74573C11.2373 9.53992 11.0706 9.37286 10.8644 9.37286C10.6582 9.37286 10.4916 9.53992 10.4916 9.74573V14.8971C10.0587 14.7427 9.74578 14.3329 9.74578 13.8475V9.74573C9.74578 9.53992 9.57912 9.37286 9.37291 9.37286C9.16671 9.37286 9 9.53992 9 9.74573V13.8475C9 14.7476 9.64174 15.5008 10.4915 15.6742V17.6293C9.85017 17.7959 9.37287 18.3746 9.37287 19.0679V25.7798C9.37287 26.602 10.0418 27.2713 10.8644 27.2713C11.6869 27.2713 12.356 26.602 12.356 25.7798V19.0679C12.356 18.3747 11.8786 17.796 11.2373 17.6293V15.6742C12.0871 15.5008 12.7288 14.7476 12.7288 13.8475V9.74573C12.7288 9.53992 12.5622 9.37286 12.356 9.37286ZM10.8644 20.9322C10.6586 20.9322 10.4916 20.7652 10.4916 20.5594C10.4916 20.3536 10.6586 20.1865 10.8644 20.1865C11.0702 20.1865 11.2373 20.3536 11.2373 20.5594C11.2373 20.7652 11.0702 20.9322 10.8644 20.9322Z"
                        fill="white" fill-opacity="0.5" />
                    <path
                        d="M30.2544 17.7836V9.37287C30.2544 9.2222 30.1638 9.08613 30.0243 9.02832C29.8852 8.9709 29.7245 9.00223 29.6179 9.10925C28.5854 10.1414 28.0171 11.514 28.0171 12.9738V15.2554C28.0171 16.0997 28.2166 16.9446 28.5939 17.6993L28.6644 17.8403C28.274 18.1095 28.0171 18.5588 28.0171 19.0678V25.7797C28.0171 26.6019 28.6861 27.2713 29.5086 27.2713C30.3312 27.2713 31.0001 26.6019 31.0001 25.7797V19.0678C31.0002 18.5182 30.6981 18.0424 30.2544 17.7836ZM28.7629 12.9738C28.7629 12.0558 29.0231 11.178 29.5087 10.4244V17.5763H29.3662L29.2611 17.366C28.9352 16.7142 28.7629 15.9845 28.7629 15.2554V12.9738ZM29.5086 20.9323C29.3028 20.9323 29.1357 20.7652 29.1357 20.5594C29.1357 20.3536 29.3028 20.1865 29.5086 20.1865C29.7144 20.1865 29.8815 20.3536 29.8815 20.5594C29.8815 20.7652 29.7145 20.9323 29.5086 20.9323Z"
                        fill="white" fill-opacity="0.5" />
                    <path
                        d="M20.1865 15.3389C18.1651 15.3389 16.4577 17.0467 16.4577 19.0677C16.4577 21.0887 18.1651 22.7965 20.1865 22.7965C22.2079 22.7965 23.9153 21.0887 23.9153 19.0677C23.9153 17.0467 22.2079 15.3389 20.1865 15.3389Z"
                        fill="white" fill-opacity="0.5" />
                    <path
                        d="M20.1865 11.9751C16.2798 11.9751 13.1017 15.1536 13.1017 19.0599C13.1017 22.9666 16.2799 26.1447 20.1865 26.1447C24.0932 26.1447 27.2713 22.9666 27.2713 19.0599C27.2713 15.1536 24.0932 11.9751 20.1865 11.9751ZM20.1865 23.5424C17.7192 23.5424 15.7119 21.5351 15.7119 19.0678C15.7119 16.6004 17.7192 14.5932 20.1865 14.5932C22.6539 14.5932 24.6611 16.6004 24.6611 19.0678C24.6611 21.5351 22.6539 23.5424 20.1865 23.5424Z"
                        fill="white" fill-opacity="0.5" />
                    <line x1="43.5" y1="5" x2="43.5" y2="31" stroke="white" stroke-opacity="0.5" />
                    <path
                        d="M56.49 13.2H61.04V15.132H58.604V17.26H60.578V19.066H58.604V21.054H61.04V23H56.49V13.2ZM63.9924 14.824H67.0304V23.924C67.0304 25.912 66.4984 26.29 64.7484 26.29H61.7524V24.54H64.0904C64.8744 24.54 65.0144 24.33 65.0144 23.686V22.23C64.5384 22.664 63.8664 23.042 63.4044 23.042H63.1944C62.0464 23.042 61.7104 22.678 61.7104 21.376V17.232C61.7104 15.748 62.2424 14.824 63.9924 14.824ZM65.0144 21.334V16.658H64.3844C63.8804 16.658 63.6844 16.91 63.6844 17.456V20.62C63.6844 21.208 63.8384 21.334 64.3844 21.334H65.0144ZM70.1857 14.824H73.2237V23.924C73.2237 25.912 72.6917 26.29 70.9417 26.29H67.9457V24.54H70.2837C71.0677 24.54 71.2077 24.33 71.2077 23.686V22.23C70.7317 22.664 70.0597 23.042 69.5977 23.042H69.3877C68.2397 23.042 67.9037 22.678 67.9037 21.376V17.232C67.9037 15.748 68.4357 14.824 70.1857 14.824ZM71.2077 21.334V16.658H70.5777C70.0737 16.658 69.8777 16.91 69.8777 17.456V20.62C69.8777 21.208 70.0317 21.334 70.5777 21.334H71.2077ZM77.7511 18.492C78.8011 19.024 79.2211 19.654 79.2211 20.424V21.054C79.2211 22.272 78.2691 23 76.7151 23H76.3651C74.8111 23 73.9431 22.272 73.9431 21.054V20.424H75.7771V20.578C75.7771 20.97 75.8891 21.278 76.5471 21.278C77.1911 21.278 77.3031 20.97 77.3031 20.578C77.3031 20.088 76.9391 19.878 76.2391 19.528L75.3851 19.108C74.5171 18.674 74.0831 18.254 74.0831 17.274V16.714C74.0831 15.496 74.8111 14.768 76.3651 14.768H76.7151C78.2691 14.768 78.9971 15.496 78.9971 16.714V17.358H77.1491C77.1491 16.77 77.1071 16.49 76.5471 16.49C75.9731 16.49 75.9311 16.784 75.9311 17.12C75.9311 17.498 76.0151 17.596 76.7991 18.002L77.7511 18.492ZM83.7726 14.768C84.9206 14.768 85.2566 15.132 85.2566 16.448V20.578C85.2566 22.076 84.7386 23 82.9886 23H81.9666V25.73H79.9366V14.824H81.9666V15.58C82.4286 15.146 83.1006 14.768 83.5766 14.768H83.7726ZM83.2826 20.368V17.19C83.2826 16.602 83.1286 16.476 82.5826 16.476H81.9666V21.152H82.5826C83.1006 21.152 83.2826 20.9 83.2826 20.368ZM91.576 17.288V17.666C91.576 19.164 90.946 19.388 89.294 19.948L88.062 20.368V20.382C88.062 21.026 88.188 21.236 88.972 21.236H90.988V23H88.314C86.564 23 86.046 22.608 86.046 20.634L86.032 19.29V17.75C86.032 15.272 86.886 14.768 88.566 14.768H89.056C90.624 14.768 91.464 15.202 91.576 17.288ZM88.902 18.24C89.406 18.072 89.602 17.932 89.602 17.358C89.602 16.784 89.294 16.658 88.804 16.658C88.104 16.658 87.936 16.896 87.936 18.394V18.562L88.902 18.24ZM95.4756 14.768H96.6796V16.476H94.2576V23H92.2276V14.824H94.2576V15.65C94.6916 15.174 95.1256 14.768 95.4756 14.768ZM101.071 21.194V23H99.3348C97.5848 23 97.0668 22.608 97.0668 20.634L97.0528 12.78H99.1248V14.866H100.413V16.672H99.1248V20.382C99.1248 21.026 99.2088 21.194 99.9928 21.194H101.071ZM110.842 19.01H105.158V17.19H110.842V19.01ZM118.134 15.09C117.42 15.09 117.308 15.398 117.308 16.91V19.276C117.308 20.802 117.42 21.11 118.134 21.11C118.722 21.11 118.89 20.9 118.932 19.976H121.032C121.004 22.384 120.052 23.042 118.372 23.042H117.882C116.174 23.042 115.222 22.37 115.222 19.85V16.35C115.222 13.83 116.174 13.144 117.882 13.144H118.372C120.052 13.144 121.004 13.816 121.032 16.224H118.932C118.89 15.3 118.722 15.09 118.134 15.09ZM125.527 14.768C126.689 14.768 127.025 15.132 127.025 16.448V23H125.051V17.19C125.051 16.602 124.883 16.476 124.351 16.476H123.721V23H121.691V12.08H123.721V15.594C124.183 15.146 124.855 14.768 125.331 14.768H125.527ZM131.775 14.768C132.937 14.768 133.273 15.132 133.273 16.448V23H131.299V17.19C131.299 16.602 131.131 16.476 130.599 16.476H129.969V23H127.939V12.08H129.969V15.594C130.431 15.146 131.103 14.768 131.579 14.768H131.775ZM139.045 23H137.029V22.314C136.623 22.706 136.091 23.042 135.671 23.042H135.461C134.313 23.042 133.977 22.678 133.977 21.376V20.186C133.977 18.702 134.607 18.478 136.259 17.918L137.029 17.652V17.428C137.029 16.784 136.889 16.574 136.105 16.574H134.355V14.824H136.763C138.513 14.824 139.045 15.202 139.045 17.19V23ZM136.651 21.292H137.029V19.5L136.651 19.612C136.147 19.794 135.951 19.99 135.951 20.578C135.965 21.166 136.105 21.292 136.651 21.292ZM143.918 21.194V23H142.182C140.432 23 139.914 22.608 139.914 20.634L139.9 12.78H141.972V14.866H143.26V16.672H141.972V20.382C141.972 21.026 142.056 21.194 142.84 21.194H143.918ZM149.326 23H147.31V22.314C146.904 22.706 146.372 23.042 145.952 23.042H145.742C144.594 23.042 144.258 22.678 144.258 21.376V20.186C144.258 18.702 144.888 18.478 146.54 17.918L147.31 17.652V17.428C147.31 16.784 147.17 16.574 146.386 16.574H144.636V14.824H147.044C148.794 14.824 149.326 15.202 149.326 17.19V23ZM146.932 21.292H147.31V19.5L146.932 19.612C146.428 19.794 146.232 19.99 146.232 20.578C146.246 21.166 146.386 21.292 146.932 21.292ZM153.472 14.768H154.676V16.476H152.254V23H150.224V14.824H152.254V15.65C152.688 15.174 153.122 14.768 153.472 14.768ZM158.927 14.768C160.075 14.768 160.411 15.132 160.411 16.448V20.578C160.411 22.076 159.893 23 158.143 23H157.121V25.73H155.091V14.824H157.121V15.58C157.583 15.146 158.255 14.768 158.731 14.768H158.927ZM158.437 20.368V17.19C158.437 16.602 158.283 16.476 157.737 16.476H157.121V21.152H157.737C158.255 21.152 158.437 20.9 158.437 20.368ZM164.574 14.824H166.604V23H164.574V22.23C164.098 22.664 163.426 23.042 162.964 23.042H162.754C161.606 23.042 161.27 22.678 161.27 21.376V14.824H163.244V20.62C163.244 21.208 163.398 21.334 163.944 21.334H164.574V14.824ZM170.78 14.768H171.984V16.476H169.562V23H167.532V14.824H169.562V15.65C169.996 15.174 170.43 14.768 170.78 14.768Z"
                        fill="white" />
                    <path d="M9.96875 59V51H10.9375V58.1406H14.6563V59H9.96875ZM22.5947 55C22.5947 55.8437 22.4424 56.5729 22.1377 57.1875C21.833 57.8021 21.415 58.276 20.8838 58.6094C20.3525 58.9427 19.7458 59.1094 19.0635 59.1094C18.3812 59.1094 17.7744 58.9427 17.2432 58.6094C16.7119 58.276 16.2939 57.8021 15.9893 57.1875C15.6846 56.5729 15.5322 55.8437 15.5322 55C15.5322 54.1562 15.6846 53.4271 15.9893 52.8125C16.2939 52.1979 16.7119 51.724 17.2432 51.3906C17.7744 51.0573 18.3812 50.8906 19.0635 50.8906C19.7458 50.8906 20.3525 51.0573 20.8838 51.3906C21.415 51.724 21.833 52.1979 22.1377 52.8125C22.4424 53.4271 22.5947 54.1562 22.5947 55ZM21.6572 55C21.6572 54.3073 21.5413 53.7227 21.3096 53.2461C21.0804 52.7695 20.7692 52.4089 20.376 52.1641C19.9854 51.9193 19.5479 51.7969 19.0635 51.7969C18.5791 51.7969 18.1403 51.9193 17.7471 52.1641C17.3564 52.4089 17.0452 52.7695 16.8135 53.2461C16.5843 53.7227 16.4697 54.3073 16.4697 55C16.4697 55.6927 16.5843 56.2773 16.8135 56.7539C17.0452 57.2305 17.3564 57.5911 17.7471 57.8359C18.1403 58.0807 18.5791 58.2031 19.0635 58.2031C19.5479 58.2031 19.9854 58.0807 20.376 57.8359C20.7692 57.5911 21.0804 57.2305 21.3096 56.7539C21.5413 56.2773 21.6572 55.6927 21.6572 55ZM23.4531 51.8594V51H29.4531V51.8594H26.9375V59H25.9688V51.8594H23.4531ZM36.1982 51H37.167V56.2969C37.167 56.8437 37.0381 57.332 36.7803 57.7617C36.5251 58.1888 36.1644 58.526 35.6982 58.7734C35.2321 59.0182 34.6852 59.1406 34.0576 59.1406C33.43 59.1406 32.8831 59.0182 32.417 58.7734C31.9508 58.526 31.5889 58.1888 31.3311 57.7617C31.0758 57.332 30.9482 56.8437 30.9482 56.2969V51H31.917V56.2188C31.917 56.6094 32.0029 56.957 32.1748 57.2617C32.3467 57.5638 32.5915 57.8021 32.9092 57.9766C33.2295 58.1484 33.6123 58.2344 34.0576 58.2344C34.5029 58.2344 34.8857 58.1484 35.2061 57.9766C35.5264 57.8021 35.7712 57.5638 35.9404 57.2617C36.1123 56.957 36.1982 56.6094 36.1982 56.2188V51ZM43.4766 53C43.4297 52.6042 43.2396 52.2969 42.9063 52.0781C42.5729 51.8594 42.1641 51.75 41.6797 51.75C41.3255 51.75 41.0156 51.8073 40.75 51.9219C40.487 52.0365 40.2813 52.194 40.1328 52.3945C39.987 52.5951 39.9141 52.8229 39.9141 53.0781C39.9141 53.2917 39.9648 53.4753 40.0664 53.6289C40.1706 53.7799 40.3034 53.9062 40.4648 54.0078C40.6263 54.1068 40.7956 54.1888 40.9727 54.2539C41.1497 54.3164 41.3125 54.3672 41.4609 54.4062L42.2734 54.625C42.4818 54.6797 42.7135 54.7552 42.9688 54.8516C43.2266 54.9479 43.4727 55.0794 43.707 55.2461C43.944 55.4102 44.1393 55.6211 44.293 55.8789C44.4466 56.1367 44.5234 56.4531 44.5234 56.8281C44.5234 57.2604 44.4102 57.651 44.1836 58C43.9596 58.349 43.6315 58.6263 43.1992 58.832C42.7695 59.0378 42.2474 59.1406 41.6328 59.1406C41.0599 59.1406 40.5638 59.0482 40.1445 58.8633C39.7279 58.6784 39.3997 58.4206 39.1602 58.0898C38.9232 57.7591 38.7891 57.375 38.7578 56.9375H39.7578C39.7839 57.2396 39.8854 57.4896 40.0625 57.6875C40.2422 57.8828 40.4688 58.0286 40.7422 58.125C41.0182 58.2187 41.3151 58.2656 41.6328 58.2656C42.0026 58.2656 42.3346 58.2057 42.6289 58.0859C42.9232 57.9635 43.1563 57.7943 43.3281 57.5781C43.5 57.3594 43.5859 57.1042 43.5859 56.8125C43.5859 56.5469 43.5117 56.3307 43.3633 56.1641C43.2148 55.9974 43.0195 55.862 42.7773 55.7578C42.5352 55.6536 42.2734 55.5625 41.9922 55.4844L41.0078 55.2031C40.3828 55.0234 39.888 54.7669 39.5234 54.4336C39.1589 54.1003 38.9766 53.6641 38.9766 53.125C38.9766 52.6771 39.0977 52.2865 39.3398 51.9531C39.5846 51.6172 39.9128 51.3568 40.3242 51.1719C40.7383 50.9844 41.2005 50.8906 41.7109 50.8906C42.2266 50.8906 42.6849 50.9831 43.0859 51.168C43.487 51.3503 43.8047 51.6003 44.0391 51.918C44.276 52.2357 44.401 52.5964 44.4141 53H43.4766ZM49.5381 59H48.5225L51.46 51H52.46L55.3975 59H54.3818L51.9912 52.2656H51.9287L49.5381 59ZM49.9131 55.875H54.0068V56.7344H49.9131V55.875ZM61.8936 51H62.8623V56.2969C62.8623 56.8437 62.7334 57.332 62.4756 57.7617C62.2204 58.1888 61.8597 58.526 61.3936 58.7734C60.9274 59.0182 60.3805 59.1406 59.7529 59.1406C59.1253 59.1406 58.5785 59.0182 58.1123 58.7734C57.6462 58.526 57.2842 58.1888 57.0264 57.7617C56.7712 57.332 56.6436 56.8437 56.6436 56.2969V51H57.6123V56.2188C57.6123 56.6094 57.6982 56.957 57.8701 57.2617C58.042 57.5638 58.2868 57.8021 58.6045 57.9766C58.9248 58.1484 59.3076 58.2344 59.7529 58.2344C60.1982 58.2344 60.5811 58.1484 60.9014 57.9766C61.2217 57.8021 61.4665 57.5638 61.6357 57.2617C61.8076 56.957 61.8936 56.6094 61.8936 56.2188V51ZM64.3594 51.8594V51H70.3594V51.8594H67.8438V59H66.875V51.8594H64.3594ZM78.2715 55C78.2715 55.8437 78.1191 56.5729 77.8145 57.1875C77.5098 57.8021 77.0918 58.276 76.5605 58.6094C76.0293 58.9427 75.4225 59.1094 74.7402 59.1094C74.0579 59.1094 73.4512 58.9427 72.9199 58.6094C72.3887 58.276 71.9707 57.8021 71.666 57.1875C71.3613 56.5729 71.209 55.8437 71.209 55C71.209 54.1562 71.3613 53.4271 71.666 52.8125C71.9707 52.1979 72.3887 51.724 72.9199 51.3906C73.4512 51.0573 74.0579 50.8906 74.7402 50.8906C75.4225 50.8906 76.0293 51.0573 76.5605 51.3906C77.0918 51.724 77.5098 52.1979 77.8145 52.8125C78.1191 53.4271 78.2715 54.1562 78.2715 55ZM77.334 55C77.334 54.3073 77.2181 53.7227 76.9863 53.2461C76.7572 52.7695 76.446 52.4089 76.0527 52.1641C75.6621 51.9193 75.2246 51.7969 74.7402 51.7969C74.2559 51.7969 73.8171 51.9193 73.4238 52.1641C73.0332 52.4089 72.722 52.7695 72.4902 53.2461C72.2611 53.7227 72.1465 54.3073 72.1465 55C72.1465 55.6927 72.2611 56.2773 72.4902 56.7539C72.722 57.2305 73.0332 57.5911 73.4238 57.8359C73.8171 58.0807 74.2559 58.2031 74.7402 58.2031C75.2246 58.2031 75.6621 58.0807 76.0527 57.8359C76.446 57.5911 76.7572 57.2305 76.9863 56.7539C77.2181 56.2773 77.334 55.6927 77.334 55ZM79.9004 51H81.0566L83.7754 57.6406H83.8691L86.5879 51H87.7441V59H86.8379V52.9219H86.7598L84.2598 59H83.3848L80.8848 52.9219H80.8066V59H79.9004V51ZM96.4365 55C96.4365 55.8437 96.2842 56.5729 95.9795 57.1875C95.6748 57.8021 95.2568 58.276 94.7256 58.6094C94.1943 58.9427 93.5876 59.1094 92.9053 59.1094C92.223 59.1094 91.6162 58.9427 91.085 58.6094C90.5537 58.276 90.1357 57.8021 89.8311 57.1875C89.5264 56.5729 89.374 55.8437 89.374 55C89.374 54.1562 89.5264 53.4271 89.8311 52.8125C90.1357 52.1979 90.5537 51.724 91.085 51.3906C91.6162 51.0573 92.223 50.8906 92.9053 50.8906C93.5876 50.8906 94.1943 51.0573 94.7256 51.3906C95.2568 51.724 95.6748 52.1979 95.9795 52.8125C96.2842 53.4271 96.4365 54.1562 96.4365 55ZM95.499 55C95.499 54.3073 95.3831 53.7227 95.1514 53.2461C94.9222 52.7695 94.611 52.4089 94.2178 52.1641C93.8271 51.9193 93.3896 51.7969 92.9053 51.7969C92.4209 51.7969 91.9821 51.9193 91.5889 52.1641C91.1982 52.4089 90.887 52.7695 90.6553 53.2461C90.4261 53.7227 90.3115 54.3073 90.3115 55C90.3115 55.6927 90.4261 56.2773 90.6553 56.7539C90.887 57.2305 91.1982 57.5911 91.5889 57.8359C91.9821 58.0807 92.4209 58.2031 92.9053 58.2031C93.3896 58.2031 93.8271 58.0807 94.2178 57.8359C94.611 57.5911 94.9222 57.2305 95.1514 56.7539C95.3831 56.2773 95.499 55.6927 95.499 55ZM98.0654 59V51H100.862C101.42 51 101.879 51.0964 102.241 51.2891C102.603 51.4792 102.873 51.7357 103.05 52.0586C103.227 52.3789 103.315 52.7344 103.315 53.125C103.315 53.4687 103.254 53.7526 103.132 53.9766C103.012 54.2005 102.853 54.3776 102.655 54.5078C102.46 54.638 102.248 54.7344 102.019 54.7969V54.875C102.263 54.8906 102.509 54.9766 102.757 55.1328C103.004 55.2891 103.211 55.513 103.378 55.8047C103.545 56.0964 103.628 56.4531 103.628 56.875C103.628 57.276 103.537 57.6367 103.354 57.957C103.172 58.2773 102.884 58.5312 102.491 58.7187C102.098 58.9062 101.586 59 100.956 59H98.0654ZM99.0342 58.1406H100.956C101.589 58.1406 102.038 58.0182 102.304 57.7734C102.572 57.526 102.706 57.2266 102.706 56.875C102.706 56.6042 102.637 56.3542 102.499 56.125C102.361 55.8932 102.164 55.7083 101.909 55.5703C101.654 55.4297 101.352 55.3594 101.003 55.3594H99.0342V58.1406ZM99.0342 54.5156H100.831C101.123 54.5156 101.386 54.4583 101.62 54.3437C101.857 54.2292 102.045 54.0677 102.183 53.8594C102.323 53.651 102.394 53.4062 102.394 53.125C102.394 52.7734 102.271 52.4753 102.026 52.2305C101.782 51.9831 101.394 51.8594 100.862 51.8594H99.0342V54.5156ZM106.188 51V59H105.22V51H106.188ZM108.131 59V51H109.1V58.1406H112.818V59H108.131ZM114.318 59V51H119.146V51.8594H115.287V54.5625H118.896V55.4219H115.287V58.1406H119.209V59H114.318ZM125.268 53C125.221 52.6042 125.031 52.2969 124.697 52.0781C124.364 51.8594 123.955 51.75 123.471 51.75C123.117 51.75 122.807 51.8073 122.541 51.9219C122.278 52.0365 122.072 52.194 121.924 52.3945C121.778 52.5951 121.705 52.8229 121.705 53.0781C121.705 53.2917 121.756 53.4753 121.857 53.6289C121.962 53.7799 122.094 53.9062 122.256 54.0078C122.417 54.1068 122.587 54.1888 122.764 54.2539C122.941 54.3164 123.104 54.3672 123.252 54.4062L124.064 54.625C124.273 54.6797 124.505 54.7552 124.76 54.8516C125.018 54.9479 125.264 55.0794 125.498 55.2461C125.735 55.4102 125.93 55.6211 126.084 55.8789C126.238 56.1367 126.314 56.4531 126.314 56.8281C126.314 57.2604 126.201 57.651 125.975 58C125.751 58.349 125.423 58.6263 124.99 58.832C124.561 59.0378 124.038 59.1406 123.424 59.1406C122.851 59.1406 122.355 59.0482 121.936 58.8633C121.519 58.6784 121.191 58.4206 120.951 58.0898C120.714 57.7591 120.58 57.375 120.549 56.9375H121.549C121.575 57.2396 121.676 57.4896 121.854 57.6875C122.033 57.8828 122.26 58.0286 122.533 58.125C122.809 58.2187 123.106 58.2656 123.424 58.2656C123.794 58.2656 124.126 58.2057 124.42 58.0859C124.714 57.9635 124.947 57.7943 125.119 57.5781C125.291 57.3594 125.377 57.1042 125.377 56.8125C125.377 56.5469 125.303 56.3307 125.154 56.1641C125.006 55.9974 124.811 55.862 124.568 55.7578C124.326 55.6536 124.064 55.5625 123.783 55.4844L122.799 55.2031C122.174 55.0234 121.679 54.7669 121.314 54.4336C120.95 54.1003 120.768 53.6641 120.768 53.125C120.768 52.6771 120.889 52.2865 121.131 51.9531C121.376 51.6172 121.704 51.3568 122.115 51.1719C122.529 50.9844 122.992 50.8906 123.502 50.8906C124.018 50.8906 124.476 50.9831 124.877 51.168C125.278 51.3503 125.596 51.6003 125.83 51.918C126.067 52.2357 126.192 52.5964 126.205 53H125.268ZM129.157 57.9062L129.095 58.3281C129.05 58.625 128.983 58.9427 128.892 59.2813C128.803 59.6198 128.711 59.9388 128.614 60.2383C128.518 60.5378 128.438 60.776 128.376 60.9531H127.673C127.707 60.7865 127.751 60.5664 127.806 60.293C127.86 60.0195 127.915 59.7135 127.97 59.375C128.027 59.0391 128.074 58.6953 128.11 58.3437L128.157 57.9062H129.157ZM135.053 51V59H134.084V51H135.053ZM143.339 51V59H142.401L138.042 52.7187H137.964V59H136.995V51H137.933L142.308 57.2969H142.386V51H143.339ZM147.746 59H145.277V51H147.855C148.632 51 149.296 51.1602 149.848 51.4805C150.4 51.7982 150.823 52.2552 151.117 52.8516C151.411 53.4453 151.559 54.1562 151.559 54.9844C151.559 55.8177 151.41 56.5352 151.113 57.1367C150.816 57.7357 150.384 58.1966 149.816 58.5195C149.249 58.8398 148.559 59 147.746 59ZM146.246 58.1406H147.684C148.345 58.1406 148.893 58.013 149.328 57.7578C149.763 57.5026 150.087 57.1393 150.301 56.668C150.514 56.1966 150.621 55.6354 150.621 54.9844C150.621 54.3385 150.516 53.7826 150.305 53.3164C150.094 52.8477 149.779 52.4883 149.359 52.2383C148.94 51.9857 148.418 51.8594 147.793 51.8594H146.246V58.1406ZM154.152 51V59H153.184V51H154.152ZM156.423 59H155.407L158.345 51H159.345L162.282 59H161.267L158.876 52.2656H158.813L156.423 59ZM156.798 55.875H160.892V56.7344H156.798V55.875ZM169.872 51V59H168.935L164.575 52.7187H164.497V59H163.528V51H164.466L168.841 57.2969H168.919V51H169.872ZM181.654 55C181.654 55.8437 181.502 56.5729 181.197 57.1875C180.893 57.8021 180.475 58.276 179.943 58.6094C179.412 58.9427 178.805 59.1094 178.123 59.1094C177.441 59.1094 176.834 58.9427 176.303 58.6094C175.771 58.276 175.354 57.8021 175.049 57.1875C174.744 56.5729 174.592 55.8437 174.592 55C174.592 54.1562 174.744 53.4271 175.049 52.8125C175.354 52.1979 175.771 51.724 176.303 51.3906C176.834 51.0573 177.441 50.8906 178.123 50.8906C178.805 50.8906 179.412 51.0573 179.943 51.3906C180.475 51.724 180.893 52.1979 181.197 52.8125C181.502 53.4271 181.654 54.1562 181.654 55ZM180.717 55C180.717 54.3073 180.601 53.7227 180.369 53.2461C180.14 52.7695 179.829 52.4089 179.436 52.1641C179.045 51.9193 178.607 51.7969 178.123 51.7969C177.639 51.7969 177.2 51.9193 176.807 52.1641C176.416 52.4089 176.105 52.7695 175.873 53.2461C175.644 53.7227 175.529 54.3073 175.529 55C175.529 55.6927 175.644 56.2773 175.873 56.7539C176.105 57.2305 176.416 57.5911 176.807 57.8359C177.2 58.0807 177.639 58.2031 178.123 58.2031C178.607 58.2031 179.045 58.0807 179.436 57.8359C179.829 57.5911 180.14 57.2305 180.369 56.7539C180.601 56.2773 180.717 55.6927 180.717 55ZM184.252 51V59H183.283V51H184.252ZM186.194 59V51H187.163V58.1406H190.882V59H186.194ZM195.476 59V51H198.179C198.804 51 199.317 51.1068 199.718 51.3203C200.119 51.5312 200.416 51.8216 200.608 52.1914C200.801 52.5612 200.897 52.9818 200.897 53.4531C200.897 53.9245 200.801 54.3424 200.608 54.707C200.416 55.0716 200.12 55.3581 199.722 55.5664C199.323 55.7721 198.814 55.875 198.194 55.875H196.007V55H198.163C198.59 55 198.934 54.9375 199.194 54.8125C199.457 54.6875 199.647 54.5104 199.765 54.2812C199.884 54.0495 199.944 53.7734 199.944 53.4531C199.944 53.1328 199.884 52.8529 199.765 52.6133C199.645 52.3737 199.453 52.1888 199.19 52.0586C198.927 51.9258 198.58 51.8594 198.147 51.8594H196.444V59H195.476ZM199.241 55.4062L201.21 59H200.085L198.147 55.4062H199.241ZM202.512 59V51H207.34V51.8594H203.48V54.5625H207.09V55.4219H203.48V58.1406H207.402V59H202.512ZM208.648 51.8594V51H214.648V51.8594H212.133V59H211.164V51.8594H208.648ZM215.537 59H214.521L217.459 51H218.459L221.396 59H220.381L217.99 52.2656H217.928L215.537 59ZM215.912 55.875H220.006V56.7344H215.912V55.875ZM223.611 51V59H222.643V51H223.611ZM225.554 59V51H226.522V58.1406H230.241V59H225.554ZM16.7188 72C16.7188 72.8437 16.5664 73.5729 16.2617 74.1875C15.957 74.8021 15.5391 75.276 15.0078 75.6094C14.4766 75.9427 13.8698 76.1094 13.1875 76.1094C12.5052 76.1094 11.8984 75.9427 11.3672 75.6094C10.8359 75.276 10.418 74.8021 10.1133 74.1875C9.80859 73.5729 9.65625 72.8437 9.65625 72C9.65625 71.1562 9.80859 70.4271 10.1133 69.8125C10.418 69.1979 10.8359 68.724 11.3672 68.3906C11.8984 68.0573 12.5052 67.8906 13.1875 67.8906C13.8698 67.8906 14.4766 68.0573 15.0078 68.3906C15.5391 68.724 15.957 69.1979 16.2617 69.8125C16.5664 70.4271 16.7188 71.1562 16.7188 72ZM15.7813 72C15.7813 71.3073 15.6654 70.7227 15.4336 70.2461C15.2044 69.7695 14.8932 69.4089 14.5 69.1641C14.1094 68.9193 13.6719 68.7969 13.1875 68.7969C12.7031 68.7969 12.2643 68.9193 11.8711 69.1641C11.4805 69.4089 11.1693 69.7695 10.9375 70.2461C10.7083 70.7227 10.5938 71.3073 10.5938 72C10.5938 72.6927 10.7083 73.2773 10.9375 73.7539C11.1693 74.2305 11.4805 74.5911 11.8711 74.8359C12.2643 75.0807 12.7031 75.2031 13.1875 75.2031C13.6719 75.2031 14.1094 75.0807 14.5 74.8359C14.8932 74.5911 15.2044 74.2305 15.4336 73.7539C15.6654 73.2773 15.7813 72.6927 15.7813 72ZM23.5977 68H24.5664V73.2969C24.5664 73.8437 24.4375 74.332 24.1797 74.7617C23.9245 75.1888 23.5638 75.526 23.0977 75.7734C22.6315 76.0182 22.0846 76.1406 21.457 76.1406C20.8294 76.1406 20.2826 76.0182 19.8164 75.7734C19.3503 75.526 18.9883 75.1888 18.7305 74.7617C18.4753 74.332 18.3477 73.8437 18.3477 73.2969V68H19.3164V73.2188C19.3164 73.6094 19.4023 73.957 19.5742 74.2617C19.7461 74.5638 19.9909 74.8021 20.3086 74.9766C20.6289 75.1484 21.0117 75.2344 21.457 75.2344C21.9023 75.2344 22.2852 75.1484 22.6055 74.9766C22.9258 74.8021 23.1706 74.5638 23.3398 74.2617C23.5117 73.957 23.5977 73.6094 23.5977 73.2188V68ZM26.0635 68.8594V68H32.0635V68.8594H29.5479V76H28.5791V68.8594H26.0635ZM33.5586 76V68H34.5273V75.1406H38.2461V76H33.5586ZM39.7461 76V68H44.5742V68.8594H40.7148V71.5625H44.3242V72.4219H40.7148V75.1406H44.6367V76H39.7461ZM45.8828 68.8594V68H51.8828V68.8594H49.3672V76H48.3984V68.8594H45.8828ZM54.252 74.9062L54.1895 75.3281C54.1452 75.625 54.0775 75.9427 53.9863 76.2813C53.8978 76.6198 53.8053 76.9388 53.709 77.2383C53.6126 77.5378 53.5332 77.776 53.4707 77.9531H52.7676C52.8014 77.7865 52.8457 77.5664 52.9004 77.293C52.9551 77.0195 53.0098 76.7135 53.0645 76.375C53.1217 76.0391 53.1686 75.6953 53.2051 75.3437L53.252 74.9062H54.252ZM59.1787 68H60.335L63.0537 74.6406H63.1475L65.8662 68H67.0225V76H66.1162V69.9219H66.0381L63.5381 76H62.6631L60.1631 69.9219H60.085V76H59.1787V68ZM71.3555 76.125C70.7773 76.125 70.2786 75.9974 69.8594 75.7422C69.4427 75.4844 69.1211 75.125 68.8945 74.6641C68.6706 74.2005 68.5586 73.6615 68.5586 73.0469C68.5586 72.4323 68.6706 71.8906 68.8945 71.4219C69.1211 70.9505 69.4362 70.5833 69.8398 70.3203C70.2461 70.0547 70.7201 69.9219 71.2617 69.9219C71.5742 69.9219 71.8828 69.974 72.1875 70.0781C72.4922 70.1823 72.7695 70.3516 73.0195 70.5859C73.2695 70.8177 73.4688 71.125 73.6172 71.5078C73.7656 71.8906 73.8398 72.362 73.8398 72.9219V73.3125H69.2148V72.5156H72.9023C72.9023 72.1771 72.8346 71.875 72.6992 71.6094C72.5664 71.3437 72.3763 71.1341 72.1289 70.9805C71.8841 70.8268 71.5951 70.75 71.2617 70.75C70.8945 70.75 70.5768 70.8411 70.3086 71.0234C70.043 71.2031 69.8385 71.4375 69.6953 71.7266C69.5521 72.0156 69.4805 72.3255 69.4805 72.6562V73.1875C69.4805 73.6406 69.5586 74.0247 69.7148 74.3398C69.8737 74.6523 70.0938 74.8906 70.375 75.0547C70.6563 75.2161 70.9831 75.2969 71.3555 75.2969C71.5977 75.2969 71.8164 75.263 72.0117 75.1953C72.2096 75.125 72.3802 75.0208 72.5234 74.8828C72.6667 74.7422 72.7773 74.5677 72.8555 74.3594L73.7461 74.6094C73.6523 74.9115 73.4948 75.1771 73.2734 75.4062C73.0521 75.6328 72.7786 75.8099 72.4531 75.9375C72.1276 76.0625 71.7617 76.125 71.3555 76.125ZM76.1641 72.3906V76H75.2422V68H76.1641V70.9375H76.2422C76.3828 70.6276 76.5938 70.3815 76.875 70.1992C77.1589 70.0143 77.5365 69.9219 78.0078 69.9219C78.4167 69.9219 78.7747 70.0039 79.082 70.168C79.3893 70.3294 79.6276 70.5781 79.7969 70.9141C79.9688 71.2474 80.0547 71.6719 80.0547 72.1875V76H79.1328V72.25C79.1328 71.7734 79.0091 71.4049 78.7617 71.1445C78.5169 70.8815 78.1771 70.75 77.7422 70.75C77.4401 70.75 77.1693 70.8138 76.9297 70.9414C76.6927 71.069 76.5052 71.2552 76.3672 71.5C76.2318 71.7448 76.1641 72.0417 76.1641 72.3906ZM81.7412 76V70H82.6318V70.9062H82.6943C82.8037 70.6094 83.0016 70.3685 83.2881 70.1836C83.5745 69.9987 83.8975 69.9062 84.2568 69.9062C84.3245 69.9062 84.4092 69.9076 84.5107 69.9102C84.6123 69.9128 84.6891 69.9167 84.7412 69.9219V70.8594C84.71 70.8516 84.6383 70.8398 84.5264 70.8242C84.417 70.806 84.3011 70.7969 84.1787 70.7969C83.887 70.7969 83.6266 70.8581 83.3975 70.9805C83.1709 71.1003 82.9912 71.2669 82.8584 71.4805C82.7282 71.6914 82.6631 71.9323 82.6631 72.2031V76H81.7412ZM87.5996 76.1406C87.2194 76.1406 86.8743 76.069 86.5645 75.9258C86.2546 75.7799 86.0085 75.5703 85.8262 75.2969C85.6439 75.0208 85.5527 74.6875 85.5527 74.2969C85.5527 73.9531 85.6204 73.6745 85.7559 73.4609C85.8913 73.2448 86.0723 73.0755 86.2988 72.9531C86.5254 72.8307 86.7754 72.7396 87.0488 72.6797C87.3249 72.6172 87.6022 72.5677 87.8809 72.5313C88.2454 72.4844 88.541 72.4492 88.7676 72.4258C88.9967 72.3997 89.1634 72.3568 89.2676 72.2969C89.3743 72.237 89.4277 72.1328 89.4277 71.9844V71.9531C89.4277 71.5677 89.3223 71.2682 89.1113 71.0547C88.903 70.8411 88.5866 70.7344 88.1621 70.7344C87.722 70.7344 87.377 70.8307 87.127 71.0234C86.877 71.2161 86.7012 71.4219 86.5996 71.6406L85.7246 71.3281C85.8809 70.9635 86.0892 70.6797 86.3496 70.4766C86.6126 70.2708 86.8991 70.1276 87.209 70.0469C87.5215 69.9635 87.8288 69.9219 88.1309 69.9219C88.3236 69.9219 88.5449 69.9453 88.7949 69.9922C89.0475 70.0365 89.291 70.1289 89.5254 70.2695C89.7624 70.4102 89.959 70.6224 90.1152 70.9062C90.2715 71.1901 90.3496 71.5703 90.3496 72.0469V76H89.4277V75.1875H89.3809C89.3184 75.3177 89.2142 75.457 89.0684 75.6055C88.9225 75.7539 88.7285 75.8802 88.4863 75.9844C88.2441 76.0885 87.9486 76.1406 87.5996 76.1406ZM87.7402 75.3125C88.1048 75.3125 88.4121 75.2409 88.6621 75.0977C88.9147 74.9544 89.1048 74.7695 89.2324 74.543C89.3626 74.3164 89.4277 74.0781 89.4277 73.8281V72.9844C89.3887 73.0312 89.3027 73.0742 89.1699 73.1133C89.0397 73.1497 88.8887 73.1823 88.7168 73.2109C88.5475 73.237 88.3822 73.2604 88.2207 73.2812C88.0618 73.2995 87.9329 73.3151 87.834 73.3281C87.5944 73.3594 87.3704 73.4102 87.1621 73.4805C86.9564 73.5482 86.7897 73.651 86.6621 73.7891C86.5371 73.9245 86.4746 74.1094 86.4746 74.3437C86.4746 74.6641 86.5931 74.9062 86.8301 75.0703C87.0697 75.2318 87.373 75.3125 87.7402 75.3125ZM95.8135 73.5469V70H96.7354V76H95.8135V74.9844H95.751C95.6104 75.2891 95.3916 75.5482 95.0947 75.7617C94.7979 75.9727 94.4229 76.0781 93.9697 76.0781C93.5947 76.0781 93.2614 75.9961 92.9697 75.832C92.6781 75.6654 92.4489 75.4154 92.2822 75.082C92.1156 74.7461 92.0322 74.3229 92.0322 73.8125V70H92.9541V73.75C92.9541 74.1875 93.0765 74.5365 93.3213 74.7969C93.5687 75.0573 93.8838 75.1875 94.2666 75.1875C94.4958 75.1875 94.7288 75.1289 94.9658 75.0117C95.2054 74.8945 95.4059 74.7148 95.5674 74.4727C95.7314 74.2305 95.8135 73.9219 95.8135 73.5469ZM99.3457 68V76H98.4238V68H99.3457ZM101.034 76V70H101.956V76H101.034ZM101.503 69C101.323 69 101.168 68.9388 101.038 68.8164C100.91 68.694 100.847 68.5469 100.847 68.375C100.847 68.2031 100.91 68.056 101.038 67.9336C101.168 67.8112 101.323 67.75 101.503 67.75C101.683 67.75 101.836 67.8112 101.964 67.9336C102.094 68.056 102.159 68.2031 102.159 68.375C102.159 68.5469 102.094 68.694 101.964 68.8164C101.836 68.9388 101.683 69 101.503 69ZM107.082 72.1406V73H103.582V72.1406H107.082ZM114.298 70.5C114.212 70.237 114.099 70.0013 113.958 69.793C113.82 69.582 113.655 69.4023 113.462 69.2539C113.272 69.1055 113.056 68.9922 112.813 68.9141C112.571 68.8359 112.306 68.7969 112.017 68.7969C111.543 68.7969 111.112 68.9193 110.724 69.1641C110.336 69.4089 110.027 69.7695 109.798 70.2461C109.569 70.7227 109.454 71.3073 109.454 72C109.454 72.6927 109.57 73.2773 109.802 73.7539C110.034 74.2305 110.347 74.5911 110.743 74.8359C111.139 75.0807 111.584 75.2031 112.079 75.2031C112.537 75.2031 112.941 75.1055 113.29 74.9102C113.642 74.7122 113.915 74.4336 114.11 74.0742C114.308 73.7122 114.407 73.2865 114.407 72.7969L114.704 72.8594H112.298V72H115.345V72.8594C115.345 73.5182 115.204 74.0911 114.923 74.5781C114.644 75.0651 114.259 75.4427 113.767 75.7109C113.277 75.9766 112.715 76.1094 112.079 76.1094C111.371 76.1094 110.748 75.9427 110.212 75.6094C109.678 75.276 109.261 74.8021 108.962 74.1875C108.665 73.5729 108.517 72.8437 108.517 72C108.517 71.3672 108.601 70.7982 108.771 70.293C108.942 69.7852 109.185 69.3529 109.497 68.9961C109.81 68.6393 110.179 68.3659 110.606 68.1758C111.034 67.9857 111.504 67.8906 112.017 67.8906C112.438 67.8906 112.832 67.9544 113.196 68.082C113.563 68.207 113.89 68.3854 114.177 68.6172C114.466 68.8464 114.707 69.1211 114.899 69.4414C115.092 69.7591 115.225 70.112 115.298 70.5H114.298ZM120.66 73.5469V70H121.582V76H120.66V74.9844H120.598C120.457 75.2891 120.238 75.5482 119.941 75.7617C119.645 75.9727 119.27 76.0781 118.816 76.0781C118.441 76.0781 118.108 75.9961 117.816 75.832C117.525 75.6654 117.296 75.4154 117.129 75.082C116.962 74.7461 116.879 74.3229 116.879 73.8125V70H117.801V73.75C117.801 74.1875 117.923 74.5365 118.168 74.7969C118.415 75.0573 118.73 75.1875 119.113 75.1875C119.342 75.1875 119.576 75.1289 119.813 75.0117C120.052 74.8945 120.253 74.7148 120.414 74.4727C120.578 74.2305 120.66 73.9219 120.66 73.5469ZM123.271 76V70H124.161V70.9062H124.224C124.333 70.6094 124.531 70.3685 124.817 70.1836C125.104 69.9987 125.427 69.9062 125.786 69.9062C125.854 69.9062 125.938 69.9076 126.04 69.9102C126.142 69.9128 126.218 69.9167 126.271 69.9219V70.8594C126.239 70.8516 126.168 70.8398 126.056 70.8242C125.946 70.806 125.83 70.7969 125.708 70.7969C125.416 70.7969 125.156 70.8581 124.927 70.9805C124.7 71.1003 124.521 71.2669 124.388 71.4805C124.257 71.6914 124.192 71.9323 124.192 72.2031V76H123.271ZM129.603 78.375C129.157 78.375 128.774 78.3177 128.454 78.2031C128.134 78.0911 127.867 77.9427 127.653 77.7578C127.442 77.5755 127.274 77.3802 127.149 77.1719L127.884 76.6563C127.967 76.7656 128.073 76.8906 128.2 77.0312C128.328 77.1745 128.502 77.2982 128.724 77.4023C128.948 77.5091 129.241 77.5625 129.603 77.5625C130.087 77.5625 130.487 77.4453 130.802 77.2109C131.117 76.9766 131.274 76.6094 131.274 76.1094V74.8906H131.196C131.129 75 131.032 75.1354 130.907 75.2969C130.785 75.4557 130.608 75.5977 130.376 75.7227C130.147 75.8451 129.837 75.9062 129.446 75.9062C128.962 75.9062 128.527 75.7917 128.142 75.5625C127.759 75.3333 127.455 75 127.231 74.5625C127.01 74.125 126.899 73.5937 126.899 72.9687C126.899 72.3542 127.007 71.819 127.224 71.3633C127.44 70.9049 127.741 70.5508 128.126 70.3008C128.511 70.0482 128.957 69.9219 129.462 69.9219C129.853 69.9219 130.162 69.987 130.392 70.1172C130.623 70.2448 130.8 70.3906 130.923 70.5547C131.048 70.7161 131.144 70.849 131.212 70.9531H131.306V70H132.196V76.1719C132.196 76.6875 132.079 77.1068 131.845 77.4297C131.613 77.7552 131.3 77.9935 130.907 78.1445C130.517 78.2982 130.082 78.375 129.603 78.375ZM129.571 75.0781C129.941 75.0781 130.254 74.9935 130.509 74.8242C130.764 74.6549 130.958 74.4115 131.091 74.0938C131.224 73.776 131.29 73.3958 131.29 72.9531C131.29 72.5208 131.225 72.1393 131.095 71.8086C130.965 71.4779 130.772 71.2187 130.517 71.0312C130.261 70.8437 129.946 70.75 129.571 70.75C129.181 70.75 128.855 70.849 128.595 71.0469C128.337 71.2448 128.143 71.5104 128.013 71.8438C127.885 72.1771 127.821 72.5469 127.821 72.9531C127.821 73.3698 127.886 73.7383 128.017 74.0586C128.149 74.3763 128.345 74.6263 128.603 74.8086C128.863 74.9883 129.186 75.0781 129.571 75.0781ZM135.649 76.1406C135.269 76.1406 134.924 76.069 134.614 75.9258C134.304 75.7799 134.058 75.5703 133.876 75.2969C133.694 75.0208 133.603 74.6875 133.603 74.2969C133.603 73.9531 133.67 73.6745 133.806 73.4609C133.941 73.2448 134.122 73.0755 134.349 72.9531C134.575 72.8307 134.825 72.7396 135.099 72.6797C135.375 72.6172 135.652 72.5677 135.931 72.5313C136.295 72.4844 136.591 72.4492 136.817 72.4258C137.047 72.3997 137.213 72.3568 137.317 72.2969C137.424 72.237 137.478 72.1328 137.478 71.9844V71.9531C137.478 71.5677 137.372 71.2682 137.161 71.0547C136.953 70.8411 136.636 70.7344 136.212 70.7344C135.772 70.7344 135.427 70.8307 135.177 71.0234C134.927 71.2161 134.751 71.4219 134.649 71.6406L133.774 71.3281C133.931 70.9635 134.139 70.6797 134.399 70.4766C134.662 70.2708 134.949 70.1276 135.259 70.0469C135.571 69.9635 135.879 69.9219 136.181 69.9219C136.373 69.9219 136.595 69.9453 136.845 69.9922C137.097 70.0365 137.341 70.1289 137.575 70.2695C137.812 70.4102 138.009 70.6224 138.165 70.9062C138.321 71.1901 138.399 71.5703 138.399 72.0469V76H137.478V75.1875H137.431C137.368 75.3177 137.264 75.457 137.118 75.6055C136.972 75.7539 136.778 75.8802 136.536 75.9844C136.294 76.0885 135.998 76.1406 135.649 76.1406ZM135.79 75.3125C136.155 75.3125 136.462 75.2409 136.712 75.0977C136.965 74.9544 137.155 74.7695 137.282 74.543C137.412 74.3164 137.478 74.0781 137.478 73.8281V72.9844C137.438 73.0312 137.353 73.0742 137.22 73.1133C137.09 73.1497 136.938 73.1823 136.767 73.2109C136.597 73.237 136.432 73.2604 136.271 73.2812C136.112 73.2995 135.983 73.3151 135.884 73.3281C135.644 73.3594 135.42 73.4102 135.212 73.4805C135.006 73.5482 134.84 73.651 134.712 73.7891C134.587 73.9245 134.524 74.1094 134.524 74.3437C134.524 74.6641 134.643 74.9062 134.88 75.0703C135.119 75.2318 135.423 75.3125 135.79 75.3125ZM142.52 76.125C141.978 76.125 141.503 75.9961 141.094 75.7383C140.688 75.4805 140.37 75.1198 140.141 74.6562C139.914 74.1927 139.801 73.651 139.801 73.0312C139.801 72.4062 139.914 71.8607 140.141 71.3945C140.37 70.9284 140.688 70.5664 141.094 70.3086C141.503 70.0508 141.978 69.9219 142.52 69.9219C143.061 69.9219 143.535 70.0508 143.941 70.3086C144.35 70.5664 144.668 70.9284 144.895 71.3945C145.124 71.8607 145.238 72.4062 145.238 73.0312C145.238 73.651 145.124 74.1927 144.895 74.6562C144.668 75.1198 144.35 75.4805 143.941 75.7383C143.535 75.9961 143.061 76.125 142.52 76.125ZM142.52 75.2969C142.931 75.2969 143.27 75.1914 143.535 74.9805C143.801 74.7695 143.997 74.4922 144.125 74.1484C144.253 73.8047 144.316 73.4323 144.316 73.0312C144.316 72.6302 144.253 72.2565 144.125 71.9102C143.997 71.5638 143.801 71.2839 143.535 71.0703C143.27 70.8568 142.931 70.75 142.52 70.75C142.108 70.75 141.77 70.8568 141.504 71.0703C141.238 71.2839 141.042 71.5638 140.914 71.9102C140.786 72.2565 140.723 72.6302 140.723 73.0312C140.723 73.4323 140.786 73.8047 140.914 74.1484C141.042 74.4922 141.238 74.7695 141.504 74.9805C141.77 75.1914 142.108 75.2969 142.52 75.2969ZM147.567 72.3906V76H146.646V70H147.536V70.9375H147.614C147.755 70.6328 147.968 70.388 148.255 70.2031C148.541 70.0156 148.911 69.9219 149.364 69.9219C149.771 69.9219 150.126 70.0052 150.431 70.1719C150.735 70.3359 150.972 70.5859 151.142 70.9219C151.311 71.2552 151.396 71.6771 151.396 72.1875V76H150.474V72.25C150.474 71.7786 150.351 71.4115 150.106 71.1484C149.862 70.8828 149.526 70.75 149.099 70.75C148.804 70.75 148.541 70.8138 148.31 70.9414C148.08 71.069 147.899 71.2552 147.767 71.5C147.634 71.7448 147.567 72.0417 147.567 72.3906ZM156.299 76V68H159.002C159.627 68 160.14 68.1068 160.541 68.3203C160.942 68.5312 161.239 68.8216 161.432 69.1914C161.624 69.5612 161.721 69.9818 161.721 70.4531C161.721 70.9245 161.624 71.3424 161.432 71.707C161.239 72.0716 160.943 72.3581 160.545 72.5664C160.146 72.7721 159.637 72.875 159.018 72.875H156.83V72H158.986C159.413 72 159.757 71.9375 160.018 71.8125C160.281 71.6875 160.471 71.5104 160.588 71.2812C160.708 71.0495 160.768 70.7734 160.768 70.4531C160.768 70.1328 160.708 69.8529 160.588 69.6133C160.468 69.3737 160.277 69.1888 160.014 69.0586C159.751 68.9258 159.403 68.8594 158.971 68.8594H157.268V76H156.299ZM160.064 72.4062L162.033 76H160.908L158.971 72.4062H160.064ZM165.411 76.125C164.911 76.125 164.47 75.9987 164.087 75.7461C163.704 75.4909 163.405 75.1315 163.188 74.668C162.972 74.2018 162.864 73.651 162.864 73.0156C162.864 72.3854 162.972 71.8385 163.188 71.375C163.405 70.9115 163.705 70.5534 164.091 70.3008C164.476 70.0482 164.922 69.9219 165.427 69.9219C165.817 69.9219 166.126 69.987 166.353 70.1172C166.582 70.2448 166.756 70.3906 166.876 70.5547C166.998 70.7161 167.093 70.849 167.161 70.9531H167.239V68H168.161V76H167.271V75.0781H167.161C167.093 75.1875 166.997 75.3255 166.872 75.4922C166.747 75.6562 166.569 75.8034 166.337 75.9336C166.105 76.0612 165.797 76.125 165.411 76.125ZM165.536 75.2969C165.906 75.2969 166.218 75.2005 166.474 75.0078C166.729 74.8125 166.923 74.543 167.056 74.1992C167.188 73.8529 167.255 73.4531 167.255 73C167.255 72.5521 167.19 72.1602 167.06 71.8242C166.929 71.4857 166.737 71.2227 166.481 71.0352C166.226 70.8451 165.911 70.75 165.536 70.75C165.146 70.75 164.82 70.8503 164.56 71.0508C164.302 71.2487 164.108 71.5182 163.978 71.8594C163.85 72.1979 163.786 72.5781 163.786 73C163.786 73.4271 163.851 73.8151 163.981 74.1641C164.114 74.5104 164.31 74.7865 164.567 74.9922C164.828 75.1953 165.151 75.2969 165.536 75.2969ZM171.353 74.9062L171.29 75.3281C171.246 75.625 171.178 75.9427 171.087 76.2813C170.998 76.6198 170.906 76.9388 170.81 77.2383C170.713 77.5378 170.634 77.776 170.571 77.9531H169.868C169.902 77.7865 169.946 77.5664 170.001 77.293C170.056 77.0195 170.11 76.7135 170.165 76.375C170.222 76.0391 170.269 75.6953 170.306 75.3437L170.353 74.9062H171.353ZM176.607 76H175.592L178.529 68H179.529L182.467 76H181.451L179.061 69.2656H178.998L176.607 76ZM176.982 72.875H181.076V73.7344H176.982V72.875ZM184.51 72.3906V76H183.588V70H184.479V70.9375H184.557C184.697 70.6328 184.911 70.388 185.197 70.2031C185.484 70.0156 185.854 69.9219 186.307 69.9219C186.713 69.9219 187.068 70.0052 187.373 70.1719C187.678 70.3359 187.915 70.5859 188.084 70.9219C188.253 71.2552 188.338 71.6771 188.338 72.1875V76H187.416V72.25C187.416 71.7786 187.294 71.4115 187.049 71.1484C186.804 70.8828 186.468 70.75 186.041 70.75C185.747 70.75 185.484 70.8138 185.252 70.9414C185.023 71.069 184.842 71.2552 184.709 71.5C184.576 71.7448 184.51 72.0417 184.51 72.3906ZM192.288 76.125C191.788 76.125 191.347 75.9987 190.964 75.7461C190.581 75.4909 190.282 75.1315 190.065 74.668C189.849 74.2018 189.741 73.651 189.741 73.0156C189.741 72.3854 189.849 71.8385 190.065 71.375C190.282 70.9115 190.582 70.5534 190.968 70.3008C191.353 70.0482 191.799 69.9219 192.304 69.9219C192.694 69.9219 193.003 69.987 193.229 70.1172C193.459 70.2448 193.633 70.3906 193.753 70.5547C193.875 70.7161 193.97 70.849 194.038 70.9531H194.116V68H195.038V76H194.147V75.0781H194.038C193.97 75.1875 193.874 75.3255 193.749 75.4922C193.624 75.6562 193.446 75.8034 193.214 75.9336C192.982 76.0612 192.674 76.125 192.288 76.125ZM192.413 75.2969C192.783 75.2969 193.095 75.2005 193.351 75.0078C193.606 74.8125 193.8 74.543 193.933 74.1992C194.065 73.8529 194.132 73.4531 194.132 73C194.132 72.5521 194.067 72.1602 193.937 71.8242C193.806 71.4857 193.614 71.2227 193.358 71.0352C193.103 70.8451 192.788 70.75 192.413 70.75C192.022 70.75 191.697 70.8503 191.437 71.0508C191.179 71.2487 190.985 71.5182 190.854 71.8594C190.727 72.1979 190.663 72.5781 190.663 73C190.663 73.4271 190.728 73.8151 190.858 74.1641C190.991 74.5104 191.187 74.7865 191.444 74.9922C191.705 75.1953 192.028 75.2969 192.413 75.2969ZM197.776 72.3906V76H196.854V68H197.776V70.9375H197.854C197.995 70.6276 198.206 70.3815 198.487 70.1992C198.771 70.0143 199.149 69.9219 199.62 69.9219C200.029 69.9219 200.387 70.0039 200.694 70.168C201.002 70.3294 201.24 70.5781 201.409 70.9141C201.581 71.2474 201.667 71.6719 201.667 72.1875V76H200.745V72.25C200.745 71.7734 200.621 71.4049 200.374 71.1445C200.129 70.8815 199.789 70.75 199.354 70.75C199.052 70.75 198.782 70.8138 198.542 70.9414C198.305 71.069 198.118 71.2552 197.979 71.5C197.844 71.7448 197.776 72.0417 197.776 72.3906ZM205.869 76.125C205.291 76.125 204.792 75.9974 204.373 75.7422C203.956 75.4844 203.635 75.125 203.408 74.6641C203.184 74.2005 203.072 73.6615 203.072 73.0469C203.072 72.4323 203.184 71.8906 203.408 71.4219C203.635 70.9505 203.95 70.5833 204.354 70.3203C204.76 70.0547 205.234 69.9219 205.775 69.9219C206.088 69.9219 206.396 69.974 206.701 70.0781C207.006 70.1823 207.283 70.3516 207.533 70.5859C207.783 70.8177 207.982 71.125 208.131 71.5078C208.279 71.8906 208.354 72.362 208.354 72.9219V73.3125H203.729V72.5156H207.416C207.416 72.1771 207.348 71.875 207.213 71.6094C207.08 71.3437 206.89 71.1341 206.643 70.9805C206.398 70.8268 206.109 70.75 205.775 70.75C205.408 70.75 205.09 70.8411 204.822 71.0234C204.557 71.2031 204.352 71.4375 204.209 71.7266C204.066 72.0156 203.994 72.3255 203.994 72.6562V73.1875C203.994 73.6406 204.072 74.0247 204.229 74.3398C204.387 74.6523 204.607 74.8906 204.889 75.0547C205.17 75.2161 205.497 75.2969 205.869 75.2969C206.111 75.2969 206.33 75.263 206.525 75.1953C206.723 75.125 206.894 75.0208 207.037 74.8828C207.18 74.7422 207.291 74.5677 207.369 74.3594L208.26 74.6094C208.166 74.9115 208.008 75.1771 207.787 75.4062C207.566 75.6328 207.292 75.8099 206.967 75.9375C206.641 76.0625 206.275 76.125 205.869 76.125ZM209.756 76V70H210.646V70.9062H210.709C210.818 70.6094 211.016 70.3685 211.303 70.1836C211.589 69.9987 211.912 69.9062 212.271 69.9062C212.339 69.9062 212.424 69.9076 212.525 69.9102C212.627 69.9128 212.704 69.9167 212.756 69.9219V70.8594C212.725 70.8516 212.653 70.8398 212.541 70.8242C212.432 70.806 212.316 70.7969 212.193 70.7969C211.902 70.7969 211.641 70.8581 211.412 70.9805C211.186 71.1003 211.006 71.2669 210.873 71.4805C210.743 71.6914 210.678 71.9323 210.678 72.2031V76H209.756ZM213.849 76V70H214.771V76H213.849ZM214.317 69C214.138 69 213.983 68.9388 213.853 68.8164C213.725 68.694 213.661 68.5469 213.661 68.375C213.661 68.2031 213.725 68.056 213.853 67.9336C213.983 67.8112 214.138 67.75 214.317 67.75C214.497 67.75 214.651 67.8112 214.778 67.9336C214.909 68.056 214.974 68.2031 214.974 68.375C214.974 68.5469 214.909 68.694 214.778 68.8164C214.651 68.9388 214.497 69 214.317 69ZM218.225 76.1406C217.844 76.1406 217.499 76.069 217.189 75.9258C216.88 75.7799 216.633 75.5703 216.451 75.2969C216.269 75.0208 216.178 74.6875 216.178 74.2969C216.178 73.9531 216.245 73.6745 216.381 73.4609C216.516 73.2448 216.697 73.0755 216.924 72.9531C217.15 72.8307 217.4 72.7396 217.674 72.6797C217.95 72.6172 218.227 72.5677 218.506 72.5313C218.87 72.4844 219.166 72.4492 219.393 72.4258C219.622 72.3997 219.788 72.3568 219.893 72.2969C219.999 72.237 220.053 72.1328 220.053 71.9844V71.9531C220.053 71.5677 219.947 71.2682 219.736 71.0547C219.528 70.8411 219.212 70.7344 218.787 70.7344C218.347 70.7344 218.002 70.8307 217.752 71.0234C217.502 71.2161 217.326 71.4219 217.225 71.6406L216.35 71.3281C216.506 70.9635 216.714 70.6797 216.975 70.4766C217.238 70.2708 217.524 70.1276 217.834 70.0469C218.146 69.9635 218.454 69.9219 218.756 69.9219C218.949 69.9219 219.17 69.9453 219.42 69.9922C219.673 70.0365 219.916 70.1289 220.15 70.2695C220.387 70.4102 220.584 70.6224 220.74 70.9062C220.896 71.1901 220.975 71.5703 220.975 72.0469V76H220.053V75.1875H220.006C219.943 75.3177 219.839 75.457 219.693 75.6055C219.548 75.7539 219.354 75.8802 219.111 75.9844C218.869 76.0885 218.574 76.1406 218.225 76.1406ZM218.365 75.3125C218.73 75.3125 219.037 75.2409 219.287 75.0977C219.54 74.9544 219.73 74.7695 219.857 74.543C219.988 74.3164 220.053 74.0781 220.053 73.8281V72.9844C220.014 73.0312 219.928 73.0742 219.795 73.1133C219.665 73.1497 219.514 73.1823 219.342 73.2109C219.173 73.237 219.007 73.2604 218.846 73.2812C218.687 73.2995 218.558 73.3151 218.459 73.3281C218.219 73.3594 217.995 73.4102 217.787 73.4805C217.581 73.5482 217.415 73.651 217.287 73.7891C217.162 73.9245 217.1 74.1094 217.1 74.3437C217.1 74.6641 217.218 74.9062 217.455 75.0703C217.695 75.2318 217.998 75.3125 218.365 75.3125ZM225.876 68H227.032L229.751 74.6406H229.845L232.563 68H233.72V76H232.813V69.9219H232.735L230.235 76H229.36L226.86 69.9219H226.782V76H225.876V68ZM237.975 76.125C237.433 76.125 236.958 75.9961 236.549 75.7383C236.143 75.4805 235.825 75.1198 235.596 74.6562C235.369 74.1927 235.256 73.651 235.256 73.0312C235.256 72.4062 235.369 71.8607 235.596 71.3945C235.825 70.9284 236.143 70.5664 236.549 70.3086C236.958 70.0508 237.433 69.9219 237.975 69.9219C238.516 69.9219 238.99 70.0508 239.396 70.3086C239.805 70.5664 240.123 70.9284 240.35 71.3945C240.579 71.8607 240.693 72.4062 240.693 73.0312C240.693 73.651 240.579 74.1927 240.35 74.6562C240.123 75.1198 239.805 75.4805 239.396 75.7383C238.99 75.9961 238.516 76.125 237.975 76.125ZM237.975 75.2969C238.386 75.2969 238.725 75.1914 238.99 74.9805C239.256 74.7695 239.452 74.4922 239.58 74.1484C239.708 73.8047 239.771 73.4323 239.771 73.0312C239.771 72.6302 239.708 72.2565 239.58 71.9102C239.452 71.5638 239.256 71.2839 238.99 71.0703C238.725 70.8568 238.386 70.75 237.975 70.75C237.563 70.75 237.225 70.8568 236.959 71.0703C236.693 71.2839 236.497 71.5638 236.369 71.9102C236.242 72.2565 236.178 72.6302 236.178 73.0312C236.178 73.4323 236.242 73.8047 236.369 74.1484C236.497 74.4922 236.693 74.7695 236.959 74.9805C237.225 75.1914 237.563 75.2969 237.975 75.2969ZM242.101 76V70H242.991V70.9062H243.054C243.163 70.6094 243.361 70.3685 243.647 70.1836C243.934 69.9987 244.257 69.9062 244.616 69.9062C244.684 69.9062 244.769 69.9076 244.87 69.9102C244.972 69.9128 245.049 69.9167 245.101 69.9219V70.8594C245.069 70.8516 244.998 70.8398 244.886 70.8242C244.776 70.806 244.66 70.7969 244.538 70.7969C244.246 70.7969 243.986 70.8581 243.757 70.9805C243.53 71.1003 243.351 71.2669 243.218 71.4805C243.088 71.6914 243.022 71.9323 243.022 72.2031V76H242.101ZM10.2969 85L12.6719 91.7344H12.7656L15.1406 85H16.1563L13.2188 93H12.2188L9.28125 85H10.2969ZM17.2773 93V87H18.1992V93H17.2773ZM17.7461 86C17.5664 86 17.4115 85.9388 17.2813 85.8164C17.1536 85.694 17.0898 85.5469 17.0898 85.375C17.0898 85.2031 17.1536 85.056 17.2813 84.9336C17.4115 84.8112 17.5664 84.75 17.7461 84.75C17.9258 84.75 18.0794 84.8112 18.207 84.9336C18.3372 85.056 18.4023 85.2031 18.4023 85.375C18.4023 85.5469 18.3372 85.694 18.207 85.8164C18.0794 85.9388 17.9258 86 17.7461 86ZM20.8096 85V93H19.8877V85H20.8096ZM23.4199 85V93H22.498V85H23.4199ZM26.874 93.1406C26.4938 93.1406 26.1488 93.069 25.8389 92.9258C25.529 92.7799 25.2829 92.5703 25.1006 92.2969C24.9183 92.0208 24.8271 91.6875 24.8271 91.2969C24.8271 90.9531 24.8949 90.6745 25.0303 90.4609C25.1657 90.2448 25.3467 90.0755 25.5732 89.9531C25.7998 89.8307 26.0498 89.7396 26.3232 89.6797C26.5993 89.6172 26.8766 89.5677 27.1553 89.5313C27.5199 89.4844 27.8154 89.4492 28.042 89.4258C28.2712 89.3997 28.4378 89.3568 28.542 89.2969C28.6488 89.237 28.7021 89.1328 28.7021 88.9844V88.9531C28.7021 88.5677 28.5967 88.2682 28.3857 88.0547C28.1774 87.8411 27.861 87.7344 27.4365 87.7344C26.9964 87.7344 26.6514 87.8307 26.4014 88.0234C26.1514 88.2161 25.9756 88.4219 25.874 88.6406L24.999 88.3281C25.1553 87.9635 25.3636 87.6797 25.624 87.4766C25.887 87.2708 26.1735 87.1276 26.4834 87.0469C26.7959 86.9635 27.1032 86.9219 27.4053 86.9219C27.598 86.9219 27.8193 86.9453 28.0693 86.9922C28.3219 87.0365 28.5654 87.1289 28.7998 87.2695C29.0368 87.4102 29.2334 87.6224 29.3896 87.9062C29.5459 88.1901 29.624 88.5703 29.624 89.0469V93H28.7021V92.1875H28.6553C28.5928 92.3177 28.4886 92.457 28.3428 92.6055C28.1969 92.7539 28.0029 92.8802 27.7607 92.9844C27.5186 93.0885 27.223 93.1406 26.874 93.1406ZM27.0146 92.3125C27.3792 92.3125 27.6865 92.2409 27.9365 92.0977C28.1891 91.9544 28.3792 91.7695 28.5068 91.543C28.637 91.3164 28.7021 91.0781 28.7021 90.8281V89.9844C28.6631 90.0312 28.5771 90.0742 28.4443 90.1133C28.3141 90.1497 28.1631 90.1823 27.9912 90.2109C27.8219 90.237 27.6566 90.2604 27.4951 90.2812C27.3363 90.2995 27.2074 90.3151 27.1084 90.3281C26.8688 90.3594 26.6449 90.4102 26.4365 90.4805C26.2308 90.5482 26.0641 90.651 25.9365 90.7891C25.8115 90.9245 25.749 91.1094 25.749 91.3437C25.749 91.6641 25.8675 91.9062 26.1045 92.0703C26.3441 92.2318 26.6475 92.3125 27.0146 92.3125ZM33.7285 95.375C33.2832 95.375 32.9004 95.3177 32.5801 95.2031C32.2598 95.0911 31.9928 94.9427 31.7793 94.7578C31.5684 94.5755 31.4004 94.3802 31.2754 94.1719L32.0098 93.6563C32.0931 93.7656 32.1986 93.8906 32.3262 94.0312C32.4538 94.1745 32.6283 94.2982 32.8496 94.4023C33.0736 94.5091 33.3665 94.5625 33.7285 94.5625C34.2129 94.5625 34.6126 94.4453 34.9277 94.2109C35.2428 93.9766 35.4004 93.6094 35.4004 93.1094V91.8906H35.3223C35.2546 92 35.1582 92.1354 35.0332 92.2969C34.9108 92.4557 34.7337 92.5977 34.502 92.7227C34.2728 92.8451 33.9629 92.9062 33.5723 92.9062C33.0879 92.9062 32.653 92.7917 32.2676 92.5625C31.8848 92.3333 31.5814 92 31.3574 91.5625C31.1361 91.125 31.0254 90.5937 31.0254 89.9687C31.0254 89.3542 31.1335 88.819 31.3496 88.3633C31.5658 87.9049 31.8665 87.5508 32.252 87.3008C32.6374 87.0482 33.0827 86.9219 33.5879 86.9219C33.9785 86.9219 34.2884 86.987 34.5176 87.1172C34.7493 87.2448 34.9264 87.3906 35.0488 87.5547C35.1738 87.7161 35.2702 87.849 35.3379 87.9531H35.4316V87H36.3223V93.1719C36.3223 93.6875 36.2051 94.1068 35.9707 94.4297C35.7389 94.7552 35.4264 94.9935 35.0332 95.1445C34.6426 95.2982 34.2077 95.375 33.7285 95.375ZM33.6973 92.0781C34.0671 92.0781 34.3796 91.9935 34.6348 91.8242C34.89 91.6549 35.084 91.4115 35.2168 91.0938C35.3496 90.776 35.416 90.3958 35.416 89.9531C35.416 89.5208 35.3509 89.1393 35.2207 88.8086C35.0905 88.4779 34.8978 88.2187 34.6426 88.0312C34.3874 87.8437 34.0723 87.75 33.6973 87.75C33.3066 87.75 32.9811 87.849 32.7207 88.0469C32.4629 88.2448 32.2689 88.5104 32.1387 88.8438C32.0111 89.1771 31.9473 89.5469 31.9473 89.9531C31.9473 90.3698 32.0124 90.7383 32.1426 91.0586C32.2754 91.3763 32.4707 91.6263 32.7285 91.8086C32.9889 91.9883 33.3118 92.0781 33.6973 92.0781ZM40.5254 93.125C39.9473 93.125 39.4486 92.9974 39.0293 92.7422C38.6126 92.4844 38.291 92.125 38.0645 91.6641C37.8405 91.2005 37.7285 90.6615 37.7285 90.0469C37.7285 89.4323 37.8405 88.8906 38.0645 88.4219C38.291 87.9505 38.6061 87.5833 39.0098 87.3203C39.416 87.0547 39.89 86.9219 40.4316 86.9219C40.7441 86.9219 41.0527 86.974 41.3574 87.0781C41.6621 87.1823 41.9395 87.3516 42.1895 87.5859C42.4395 87.8177 42.6387 88.125 42.7871 88.5078C42.9355 88.8906 43.0098 89.362 43.0098 89.9219V90.3125H38.3848V89.5156H42.0723C42.0723 89.1771 42.0046 88.875 41.8691 88.6094C41.7363 88.3437 41.5462 88.1341 41.2988 87.9805C41.054 87.8268 40.765 87.75 40.4316 87.75C40.0645 87.75 39.7467 87.8411 39.4785 88.0234C39.2129 88.2031 39.0085 88.4375 38.8652 88.7266C38.722 89.0156 38.6504 89.3255 38.6504 89.6562V90.1875C38.6504 90.6406 38.7285 91.0247 38.8848 91.3398C39.0436 91.6523 39.2637 91.8906 39.5449 92.0547C39.8262 92.2161 40.153 92.2969 40.5254 92.2969C40.7676 92.2969 40.9863 92.263 41.1816 92.1953C41.3796 92.125 41.5501 92.0208 41.6934 91.8828C41.8366 91.7422 41.9473 91.5677 42.0254 91.3594L42.916 91.6094C42.8223 91.9115 42.6647 92.1771 42.4434 92.4062C42.222 92.6328 41.9486 92.8099 41.623 92.9375C41.2975 93.0625 40.9316 93.125 40.5254 93.125ZM45.7871 91.9062L45.7246 92.3281C45.6803 92.625 45.6126 92.9427 45.5215 93.2813C45.4329 93.6198 45.3405 93.9388 45.2441 94.2383C45.1478 94.5378 45.0684 94.776 45.0059 94.9531H44.3027C44.3366 94.7865 44.3809 94.5664 44.4355 94.293C44.4902 94.0195 44.5449 93.7135 44.5996 93.375C44.6569 93.0391 44.7038 92.6953 44.7402 92.3437L44.7871 91.9062H45.7871ZM56.1826 87.5C56.0967 87.237 55.9834 87.0013 55.8428 86.793C55.7048 86.582 55.5394 86.4023 55.3467 86.2539C55.1566 86.1055 54.9404 85.9922 54.6982 85.9141C54.4561 85.8359 54.1904 85.7969 53.9014 85.7969C53.4274 85.7969 52.9964 85.9193 52.6084 86.1641C52.2204 86.4089 51.9118 86.7695 51.6826 87.2461C51.4535 87.7227 51.3389 88.3073 51.3389 89C51.3389 89.6927 51.4548 90.2773 51.6865 90.7539C51.9183 91.2305 52.2321 91.5911 52.6279 91.8359C53.0238 92.0807 53.4691 92.2031 53.9639 92.2031C54.4222 92.2031 54.8258 92.1055 55.1748 91.9102C55.5264 91.7122 55.7998 91.4336 55.9951 91.0742C56.193 90.7122 56.292 90.2865 56.292 89.7969L56.5889 89.8594H54.1826V89H57.2295V89.8594C57.2295 90.5182 57.0889 91.0911 56.8076 91.5781C56.529 92.0651 56.1436 92.4427 55.6514 92.7109C55.1618 92.9766 54.5993 93.1094 53.9639 93.1094C53.2555 93.1094 52.6331 92.9427 52.0967 92.6094C51.5628 92.276 51.1462 91.8021 50.8467 91.1875C50.5498 90.5729 50.4014 89.8437 50.4014 89C50.4014 88.3672 50.486 87.7982 50.6553 87.293C50.8271 86.7852 51.0693 86.3529 51.3818 85.9961C51.6943 85.6393 52.0641 85.3659 52.4912 85.1758C52.9183 84.9857 53.3883 84.8906 53.9014 84.8906C54.3232 84.8906 54.7165 84.9544 55.0811 85.082C55.4482 85.207 55.7751 85.3854 56.0615 85.6172C56.3506 85.8464 56.5915 86.1211 56.7842 86.4414C56.9769 86.7591 57.1097 87.112 57.1826 87.5H56.1826ZM59.6855 89.3906V93H58.7637V85H59.6855V87.9375H59.7637C59.9043 87.6276 60.1152 87.3815 60.3965 87.1992C60.6803 87.0143 61.0579 86.9219 61.5293 86.9219C61.9382 86.9219 62.2962 87.0039 62.6035 87.168C62.9108 87.3294 63.1491 87.5781 63.3184 87.9141C63.4902 88.2474 63.5762 88.6719 63.5762 89.1875V93H62.6543V89.25C62.6543 88.7734 62.5306 88.4049 62.2832 88.1445C62.0384 87.8815 61.6986 87.75 61.2637 87.75C60.9616 87.75 60.6908 87.8138 60.4512 87.9414C60.2142 88.069 60.0267 88.2552 59.8887 88.5C59.7533 88.7448 59.6855 89.0417 59.6855 89.3906ZM65.2627 93V87H66.1846V93H65.2627ZM65.7314 86C65.5518 86 65.3968 85.9388 65.2666 85.8164C65.139 85.694 65.0752 85.5469 65.0752 85.375C65.0752 85.2031 65.139 85.056 65.2666 84.9336C65.3968 84.8112 65.5518 84.75 65.7314 84.75C65.9111 84.75 66.0648 84.8112 66.1924 84.9336C66.3226 85.056 66.3877 85.2031 66.3877 85.375C66.3877 85.5469 66.3226 85.694 66.1924 85.8164C66.0648 85.9388 65.9111 86 65.7314 86ZM70.4824 87V87.7812H67.373V87H70.4824ZM68.2793 85.5625H69.2012V91.2812C69.2012 91.5417 69.2389 91.737 69.3145 91.8672C69.3926 91.9948 69.4915 92.0807 69.6113 92.125C69.7337 92.1667 69.8626 92.1875 69.998 92.1875C70.0996 92.1875 70.1829 92.1823 70.248 92.1719C70.3132 92.1589 70.3652 92.1484 70.4043 92.1406L70.5918 92.9687C70.5293 92.9922 70.4421 93.0156 70.3301 93.0391C70.2181 93.0651 70.0762 93.0781 69.9043 93.0781C69.6439 93.0781 69.3887 93.0221 69.1387 92.9102C68.8913 92.7982 68.6855 92.6276 68.5215 92.3984C68.36 92.1693 68.2793 91.8802 68.2793 91.5312V85.5625ZM74.2422 93.125C73.7005 93.125 73.2253 92.9961 72.8164 92.7383C72.4102 92.4805 72.0924 92.1198 71.8633 91.6562C71.6367 91.1927 71.5234 90.651 71.5234 90.0312C71.5234 89.4062 71.6367 88.8607 71.8633 88.3945C72.0924 87.9284 72.4102 87.5664 72.8164 87.3086C73.2253 87.0508 73.7005 86.9219 74.2422 86.9219C74.7839 86.9219 75.2578 87.0508 75.6641 87.3086C76.0729 87.5664 76.3906 87.9284 76.6172 88.3945C76.8464 88.8607 76.9609 89.4062 76.9609 90.0312C76.9609 90.651 76.8464 91.1927 76.6172 91.6562C76.3906 92.1198 76.0729 92.4805 75.6641 92.7383C75.2578 92.9961 74.7839 93.125 74.2422 93.125ZM74.2422 92.2969C74.6536 92.2969 74.9922 92.1914 75.2578 91.9805C75.5234 91.7695 75.7201 91.4922 75.8477 91.1484C75.9753 90.8047 76.0391 90.4323 76.0391 90.0312C76.0391 89.6302 75.9753 89.2565 75.8477 88.9102C75.7201 88.5638 75.5234 88.2839 75.2578 88.0703C74.9922 87.8568 74.6536 87.75 74.2422 87.75C73.8307 87.75 73.4922 87.8568 73.2266 88.0703C72.9609 88.2839 72.7643 88.5638 72.6367 88.9102C72.5091 89.2565 72.4453 89.6302 72.4453 90.0312C72.4453 90.4323 72.5091 90.8047 72.6367 91.1484C72.7643 91.4922 72.9609 91.7695 73.2266 91.9805C73.4922 92.1914 73.8307 92.2969 74.2422 92.2969ZM78.3682 93V87H79.2588V87.9062H79.3213C79.4307 87.6094 79.6286 87.3685 79.915 87.1836C80.2015 86.9987 80.5244 86.9062 80.8838 86.9062C80.9515 86.9062 81.0361 86.9076 81.1377 86.9102C81.2393 86.9128 81.3161 86.9167 81.3682 86.9219V87.8594C81.3369 87.8516 81.2653 87.8398 81.1533 87.8242C81.0439 87.806 80.9281 87.7969 80.8057 87.7969C80.514 87.7969 80.2536 87.8581 80.0244 87.9805C79.7979 88.1003 79.6182 88.2669 79.4854 88.4805C79.3551 88.6914 79.29 88.9323 79.29 89.2031V93H78.3682ZM83.3828 89.3906V93H82.4609V87H83.3516V87.9375H83.4297C83.5703 87.6328 83.7839 87.388 84.0703 87.2031C84.3568 87.0156 84.7266 86.9219 85.1797 86.9219C85.5859 86.9219 85.9414 87.0052 86.2461 87.1719C86.5508 87.3359 86.7878 87.5859 86.957 87.9219C87.1263 88.2552 87.2109 88.6771 87.2109 89.1875V93H86.2891V89.25C86.2891 88.7786 86.1667 88.4115 85.9219 88.1484C85.6771 87.8828 85.3411 87.75 84.9141 87.75C84.6198 87.75 84.3568 87.8138 84.125 87.9414C83.8958 88.069 83.7148 88.2552 83.582 88.5C83.4492 88.7448 83.3828 89.0417 83.3828 89.3906ZM88.8955 93V87H89.8174V93H88.8955ZM89.3643 86C89.1846 86 89.0296 85.9388 88.8994 85.8164C88.7718 85.694 88.708 85.5469 88.708 85.375C88.708 85.2031 88.7718 85.056 88.8994 84.9336C89.0296 84.8112 89.1846 84.75 89.3643 84.75C89.5439 84.75 89.6976 84.8112 89.8252 84.9336C89.9554 85.056 90.0205 85.2031 90.0205 85.375C90.0205 85.5469 89.9554 85.694 89.8252 85.8164C89.6976 85.9388 89.5439 86 89.3643 86ZM92.8809 91.9062L92.8184 92.3281C92.7741 92.625 92.7064 92.9427 92.6152 93.2813C92.5267 93.6198 92.4342 93.9388 92.3379 94.2383C92.2415 94.5378 92.1621 94.776 92.0996 94.9531H91.3965C91.4303 94.7865 91.4746 94.5664 91.5293 94.293C91.584 94.0195 91.6387 93.7135 91.6934 93.375C91.7507 93.0391 91.7975 92.6953 91.834 92.3437L91.8809 91.9062H92.8809ZM104.151 85V93H103.214L98.8545 86.7187H98.7764V93H97.8076V85H98.7451L103.12 91.2969H103.198V85H104.151ZM108.48 93.125C107.902 93.125 107.404 92.9974 106.984 92.7422C106.568 92.4844 106.246 92.125 106.02 91.6641C105.796 91.2005 105.684 90.6615 105.684 90.0469C105.684 89.4323 105.796 88.8906 106.02 88.4219C106.246 87.9505 106.561 87.5833 106.965 87.3203C107.371 87.0547 107.845 86.9219 108.387 86.9219C108.699 86.9219 109.008 86.974 109.313 87.0781C109.617 87.1823 109.895 87.3516 110.145 87.5859C110.395 87.8177 110.594 88.125 110.742 88.5078C110.891 88.8906 110.965 89.362 110.965 89.9219V90.3125H106.34V89.5156H110.027C110.027 89.1771 109.96 88.875 109.824 88.6094C109.691 88.3437 109.501 88.1341 109.254 87.9805C109.009 87.8268 108.72 87.75 108.387 87.75C108.02 87.75 107.702 87.8411 107.434 88.0234C107.168 88.2031 106.964 88.4375 106.82 88.7266C106.677 89.0156 106.605 89.3255 106.605 89.6562V90.1875C106.605 90.6406 106.684 91.0247 106.84 91.3398C106.999 91.6523 107.219 91.8906 107.5 92.0547C107.781 92.2161 108.108 92.2969 108.48 92.2969C108.723 92.2969 108.941 92.263 109.137 92.1953C109.335 92.125 109.505 92.0208 109.648 91.8828C109.792 91.7422 109.902 91.5677 109.98 91.3594L110.871 91.6094C110.777 91.9115 110.62 92.1771 110.398 92.4062C110.177 92.6328 109.904 92.8099 109.578 92.9375C109.253 93.0625 108.887 93.125 108.48 93.125ZM113.727 93L111.898 87H112.867L114.164 91.5938H114.227L115.508 87H116.492L117.758 91.5781H117.82L119.117 87H120.086L118.258 93H117.352L116.039 88.3906H115.945L114.633 93H113.727ZM126.992 93H124.523V85H127.102C127.878 85 128.542 85.1602 129.094 85.4805C129.646 85.7982 130.069 86.2552 130.363 86.8516C130.658 87.4453 130.805 88.1562 130.805 88.9844C130.805 89.8177 130.656 90.5352 130.359 91.1367C130.063 91.7357 129.63 92.1966 129.063 92.5195C128.495 92.8398 127.805 93 126.992 93ZM125.492 92.1406H126.93C127.591 92.1406 128.139 92.013 128.574 91.7578C129.009 91.5026 129.333 91.1393 129.547 90.668C129.76 90.1966 129.867 89.6354 129.867 88.9844C129.867 88.3385 129.762 87.7826 129.551 87.3164C129.34 86.8477 129.025 86.4883 128.605 86.2383C128.186 85.9857 127.664 85.8594 127.039 85.8594H125.492V92.1406ZM134.82 93.125C134.242 93.125 133.743 92.9974 133.324 92.7422C132.908 92.4844 132.586 92.125 132.359 91.6641C132.135 91.2005 132.023 90.6615 132.023 90.0469C132.023 89.4323 132.135 88.8906 132.359 88.4219C132.586 87.9505 132.901 87.5833 133.305 87.3203C133.711 87.0547 134.185 86.9219 134.727 86.9219C135.039 86.9219 135.348 86.974 135.652 87.0781C135.957 87.1823 136.234 87.3516 136.484 87.5859C136.734 87.8177 136.934 88.125 137.082 88.5078C137.23 88.8906 137.305 89.362 137.305 89.9219V90.3125H132.68V89.5156H136.367C136.367 89.1771 136.299 88.875 136.164 88.6094C136.031 88.3437 135.841 88.1341 135.594 87.9805C135.349 87.8268 135.06 87.75 134.727 87.75C134.359 87.75 134.042 87.8411 133.773 88.0234C133.508 88.2031 133.303 88.4375 133.16 88.7266C133.017 89.0156 132.945 89.3255 132.945 89.6562V90.1875C132.945 90.6406 133.023 91.0247 133.18 91.3398C133.339 91.6523 133.559 91.8906 133.84 92.0547C134.121 92.2161 134.448 92.2969 134.82 92.2969C135.063 92.2969 135.281 92.263 135.477 92.1953C135.674 92.125 135.845 92.0208 135.988 91.8828C136.132 91.7422 136.242 91.5677 136.32 91.3594L137.211 91.6094C137.117 91.9115 136.96 92.1771 136.738 92.4062C136.517 92.6328 136.243 92.8099 135.918 92.9375C135.592 93.0625 135.227 93.125 134.82 93.125ZM139.629 85V93H138.707V85H139.629ZM142.239 89.3906V93H141.317V85H142.239V87.9375H142.317C142.458 87.6276 142.669 87.3815 142.95 87.1992C143.234 87.0143 143.612 86.9219 144.083 86.9219C144.492 86.9219 144.85 87.0039 145.157 87.168C145.465 87.3294 145.703 87.5781 145.872 87.9141C146.044 88.2474 146.13 88.6719 146.13 89.1875V93H145.208V89.25C145.208 88.7734 145.084 88.4049 144.837 88.1445C144.592 87.8815 144.252 87.75 143.817 87.75C143.515 87.75 143.244 87.8138 143.005 87.9414C142.768 88.069 142.58 88.2552 142.442 88.5C142.307 88.7448 142.239 89.0417 142.239 89.3906ZM147.816 93V87H148.738V93H147.816ZM148.285 86C148.105 86 147.951 85.9388 147.82 85.8164C147.693 85.694 147.629 85.5469 147.629 85.375C147.629 85.2031 147.693 85.056 147.82 84.9336C147.951 84.8112 148.105 84.75 148.285 84.75C148.465 84.75 148.618 84.8112 148.746 84.9336C148.876 85.056 148.941 85.2031 148.941 85.375C148.941 85.5469 148.876 85.694 148.746 85.8164C148.618 85.9388 148.465 86 148.285 86ZM151.802 91.9062L151.739 92.3281C151.695 92.625 151.627 92.9427 151.536 93.2813C151.448 93.6198 151.355 93.9388 151.259 94.2383C151.162 94.5378 151.083 94.776 151.021 94.9531H150.317C150.351 94.7865 150.396 94.5664 150.45 94.293C150.505 94.0195 150.56 93.7135 150.614 93.375C150.672 93.0391 150.718 92.6953 150.755 92.3437L150.802 91.9062H151.802ZM159.197 93H156.729V85H159.307C160.083 85 160.747 85.1602 161.299 85.4805C161.851 85.7982 162.274 86.2552 162.568 86.8516C162.863 87.4453 163.01 88.1562 163.01 88.9844C163.01 89.8177 162.861 90.5352 162.564 91.1367C162.268 91.7357 161.835 92.1966 161.268 92.5195C160.7 92.8398 160.01 93 159.197 93ZM157.697 92.1406H159.135C159.796 92.1406 160.344 92.013 160.779 91.7578C161.214 91.5026 161.538 91.1393 161.752 90.668C161.965 90.1966 162.072 89.6354 162.072 88.9844C162.072 88.3385 161.967 87.7826 161.756 87.3164C161.545 86.8477 161.23 86.4883 160.811 86.2383C160.391 85.9857 159.869 85.8594 159.244 85.8594H157.697V92.1406ZM167.025 93.125C166.447 93.125 165.949 92.9974 165.529 92.7422C165.113 92.4844 164.791 92.125 164.564 91.6641C164.34 91.2005 164.229 90.6615 164.229 90.0469C164.229 89.4323 164.34 88.8906 164.564 88.4219C164.791 87.9505 165.106 87.5833 165.51 87.3203C165.916 87.0547 166.39 86.9219 166.932 86.9219C167.244 86.9219 167.553 86.974 167.857 87.0781C168.162 87.1823 168.439 87.3516 168.689 87.5859C168.939 87.8177 169.139 88.125 169.287 88.5078C169.436 88.8906 169.51 89.362 169.51 89.9219V90.3125H164.885V89.5156H168.572C168.572 89.1771 168.505 88.875 168.369 88.6094C168.236 88.3437 168.046 88.1341 167.799 87.9805C167.554 87.8268 167.265 87.75 166.932 87.75C166.564 87.75 166.247 87.8411 165.979 88.0234C165.713 88.2031 165.508 88.4375 165.365 88.7266C165.222 89.0156 165.15 89.3255 165.15 89.6562V90.1875C165.15 90.6406 165.229 91.0247 165.385 91.3398C165.544 91.6523 165.764 91.8906 166.045 92.0547C166.326 92.2161 166.653 92.2969 167.025 92.2969C167.268 92.2969 167.486 92.263 167.682 92.1953C167.88 92.125 168.05 92.0208 168.193 91.8828C168.337 91.7422 168.447 91.5677 168.525 91.3594L169.416 91.6094C169.322 91.9115 169.165 92.1771 168.943 92.4062C168.722 92.6328 168.449 92.8099 168.123 92.9375C167.798 93.0625 167.432 93.125 167.025 93.125ZM171.834 85V93H170.912V85H171.834ZM174.444 89.3906V93H173.522V85H174.444V87.9375H174.522C174.663 87.6276 174.874 87.3815 175.155 87.1992C175.439 87.0143 175.817 86.9219 176.288 86.9219C176.697 86.9219 177.055 87.0039 177.362 87.168C177.67 87.3294 177.908 87.5781 178.077 87.9141C178.249 88.2474 178.335 88.6719 178.335 89.1875V93H177.413V89.25C177.413 88.7734 177.289 88.4049 177.042 88.1445C176.797 87.8815 176.457 87.75 176.022 87.75C175.72 87.75 175.45 87.8138 175.21 87.9414C174.973 88.069 174.785 88.2552 174.647 88.5C174.512 88.7448 174.444 89.0417 174.444 89.3906ZM180.021 93V87H180.943V93H180.021ZM180.49 86C180.311 86 180.156 85.9388 180.025 85.8164C179.898 85.694 179.834 85.5469 179.834 85.375C179.834 85.2031 179.898 85.056 180.025 84.9336C180.156 84.8112 180.311 84.75 180.49 84.75C180.67 84.75 180.824 84.8112 180.951 84.9336C181.081 85.056 181.146 85.2031 181.146 85.375C181.146 85.5469 181.081 85.694 180.951 85.8164C180.824 85.9388 180.67 86 180.49 86ZM188.522 85V93H187.554V86.0156H187.507L185.554 87.3125V86.3281L187.554 85H188.522ZM193.636 85V93H192.667V86.0156H192.62L190.667 87.3125V86.3281L192.667 85H193.636ZM198.546 93.1094C197.957 93.1094 197.456 92.9492 197.042 92.6289C196.628 92.306 196.312 91.8385 196.093 91.2266C195.874 90.612 195.765 89.8698 195.765 89C195.765 88.1354 195.874 87.3971 196.093 86.7852C196.314 86.1706 196.632 85.7018 197.046 85.3789C197.463 85.0534 197.963 84.8906 198.546 84.8906C199.129 84.8906 199.628 85.0534 200.042 85.3789C200.459 85.7018 200.776 86.1706 200.995 86.7852C201.216 87.3971 201.327 88.1354 201.327 89C201.327 89.8698 201.218 90.612 200.999 91.2266C200.78 91.8385 200.464 92.306 200.05 92.6289C199.636 92.9492 199.134 93.1094 198.546 93.1094ZM198.546 92.25C199.129 92.25 199.582 91.9687 199.905 91.4062C200.228 90.8437 200.39 90.0417 200.39 89C200.39 88.3073 200.315 87.7174 200.167 87.2305C200.021 86.7435 199.81 86.3724 199.534 86.1172C199.261 85.862 198.931 85.7344 198.546 85.7344C197.968 85.7344 197.516 86.0195 197.19 86.5898C196.865 87.1576 196.702 87.9609 196.702 89C196.702 89.6927 196.775 90.2812 196.921 90.7656C197.067 91.25 197.276 91.6185 197.55 91.8711C197.826 92.1237 198.158 92.25 198.546 92.25ZM205.421 93.1094C204.832 93.1094 204.331 92.9492 203.917 92.6289C203.503 92.306 203.187 91.8385 202.968 91.2266C202.749 90.612 202.64 89.8698 202.64 89C202.64 88.1354 202.749 87.3971 202.968 86.7852C203.189 86.1706 203.507 85.7018 203.921 85.3789C204.338 85.0534 204.838 84.8906 205.421 84.8906C206.004 84.8906 206.503 85.0534 206.917 85.3789C207.334 85.7018 207.651 86.1706 207.87 86.7852C208.091 87.3971 208.202 88.1354 208.202 89C208.202 89.8698 208.093 90.612 207.874 91.2266C207.655 91.8385 207.339 92.306 206.925 92.6289C206.511 92.9492 206.009 93.1094 205.421 93.1094ZM205.421 92.25C206.004 92.25 206.457 91.9687 206.78 91.4062C207.103 90.8437 207.265 90.0417 207.265 89C207.265 88.3073 207.19 87.7174 207.042 87.2305C206.896 86.7435 206.685 86.3724 206.409 86.1172C206.136 85.862 205.806 85.7344 205.421 85.7344C204.843 85.7344 204.391 86.0195 204.065 86.5898C203.74 87.1576 203.577 87.9609 203.577 89C203.577 89.6927 203.65 90.2812 203.796 90.7656C203.942 91.25 204.151 91.6185 204.425 91.8711C204.701 92.1237 205.033 92.25 205.421 92.25ZM212.39 93.1094C211.874 93.1094 211.414 93.0208 211.011 92.8437C210.61 92.6667 210.291 92.4206 210.054 92.1055C209.819 91.7878 209.692 91.4193 209.671 91H210.655C210.676 91.2578 210.765 91.4805 210.921 91.668C211.077 91.8529 211.282 91.9961 211.534 92.0977C211.787 92.1992 212.067 92.25 212.374 92.25C212.718 92.25 213.022 92.1901 213.288 92.0703C213.554 91.9505 213.762 91.7839 213.913 91.5703C214.064 91.3568 214.14 91.1094 214.14 90.8281C214.14 90.5339 214.067 90.2747 213.921 90.0508C213.775 89.8242 213.562 89.6471 213.28 89.5195C212.999 89.3919 212.655 89.3281 212.249 89.3281H211.608V88.4687H212.249C212.567 88.4687 212.845 88.4115 213.085 88.2969C213.327 88.1823 213.516 88.0208 213.651 87.8125C213.789 87.6042 213.858 87.3594 213.858 87.0781C213.858 86.8073 213.799 86.5716 213.679 86.3711C213.559 86.1706 213.39 86.0143 213.171 85.9023C212.955 85.7904 212.7 85.7344 212.405 85.7344C212.129 85.7344 211.869 85.7852 211.624 85.8867C211.382 85.9857 211.184 86.1302 211.03 86.3203C210.877 86.5078 210.793 86.7344 210.78 87H209.843C209.858 86.5807 209.985 86.2135 210.222 85.8984C210.459 85.5807 210.769 85.3333 211.151 85.1562C211.537 84.9792 211.96 84.8906 212.421 84.8906C212.916 84.8906 213.34 84.9909 213.694 85.1914C214.049 85.3893 214.321 85.651 214.511 85.9766C214.701 86.3021 214.796 86.6536 214.796 87.0313C214.796 87.4818 214.677 87.8659 214.44 88.1836C214.206 88.5013 213.887 88.7214 213.483 88.8438V88.9062C213.989 88.9896 214.383 89.2044 214.667 89.5508C214.951 89.8945 215.093 90.3203 215.093 90.8281C215.093 91.263 214.974 91.6536 214.737 92C214.503 92.3437 214.183 92.6146 213.776 92.8125C213.37 93.0104 212.908 93.1094 212.39 93.1094ZM219.3 93.1094C218.711 93.1094 218.21 92.9492 217.796 92.6289C217.382 92.306 217.065 91.8385 216.847 91.2266C216.628 90.612 216.519 89.8698 216.519 89C216.519 88.1354 216.628 87.3971 216.847 86.7852C217.068 86.1706 217.386 85.7018 217.8 85.3789C218.216 85.0534 218.716 84.8906 219.3 84.8906C219.883 84.8906 220.382 85.0534 220.796 85.3789C221.213 85.7018 221.53 86.1706 221.749 86.7852C221.97 87.3971 222.081 88.1354 222.081 89C222.081 89.8698 221.972 90.612 221.753 91.2266C221.534 91.8385 221.218 92.306 220.804 92.6289C220.39 92.9492 219.888 93.1094 219.3 93.1094ZM219.3 92.25C219.883 92.25 220.336 91.9687 220.659 91.4062C220.982 90.8437 221.144 90.0417 221.144 89C221.144 88.3073 221.069 87.7174 220.921 87.2305C220.775 86.7435 220.564 86.3724 220.288 86.1172C220.015 85.862 219.685 85.7344 219.3 85.7344C218.722 85.7344 218.27 86.0195 217.944 86.5898C217.619 87.1576 217.456 87.9609 217.456 89C217.456 89.6927 217.529 90.2812 217.675 90.7656C217.821 91.25 218.03 91.6185 218.304 91.8711C218.58 92.1237 218.912 92.25 219.3 92.25Z" fill="#5C5C5C" />
                </svg>